<?xml version="1.0" encoding="UTF-8" standalone="no"?>
<!DOCTYPE svg PUBLIC "-//W3C//DTD SVG 1.1//EN"
 "http://www.w3.org/Graphics/SVG/1.1/DTD/svg11.dtd">
<!-- Generated by graphviz version 2.43.0 (0)
 -->
<!-- Title: G Pages: 1 -->
<svg width="753pt" height="735pt"
 viewBox="0.00 0.00 752.50 735.00" xmlns="http://www.w3.org/2000/svg" xmlns:xlink="http://www.w3.org/1999/xlink">
<g id="graph0" class="graph" transform="scale(1 1) rotate(0) translate(4 731)">
<title>G</title>
<polygon fill="white" stroke="transparent" points="-4,4 -4,-731 748.5,-731 748.5,4 -4,4"/>
<g id="clust1" class="cluster">
<title>cluster_family_0</title>
<polygon fill="#f4f4f4" stroke="#f4f4f4" points="8,-505 8,-719 465.5,-719 465.5,-505 8,-505"/>
<text text-anchor="start" x="16" y="-703.2" font-family="Helvetica, Arial, sans-serif" font-weight="bold" font-size="16.00">Pritchett</text>
</g>
<g id="clust2" class="cluster">
<title>cluster_family_0_0</title>
</g>
<g id="clust5" class="cluster">
<title>cluster_family_0_1</title>
</g>
<g id="clust8" class="cluster">
<title>cluster_family_1</title>
<polygon fill="#f4f4f4" stroke="#f4f4f4" points="280.5,-283 280.5,-497 736.5,-497 736.5,-283 280.5,-283"/>
<text text-anchor="start" x="288.5" y="-481.2" font-family="Helvetica, Arial, sans-serif" font-weight="bold" font-size="16.00">Dunphy</text>
</g>
<g id="clust9" class="cluster">
<title>cluster_family_1_0</title>
</g>
<g id="clust12" class="cluster">
<title>cluster_family_2</title>
<polygon fill="#f4f4f4" stroke="#f4f4f4" points="280.5,-123 280.5,-275 736,-275 736,-123 280.5,-123"/>
<text text-anchor="start" x="288.5" y="-259.2" font-family="Helvetica, Arial, sans-serif" font-weight="bold" font-size="16.00">Tucker</text>
</g>
<g id="clust13" class="cluster">
<title>cluster_family_2_0</title>
</g>
<g id="clust16" class="cluster">
<title>cluster_family_3</title>
</g>
<g id="clust19" class="cluster">
<title>cluster_family_4</title>
</g>
<g id="clust22" class="cluster">
<title>cluster_family_5</title>
</g>
<!-- union_0_0 -->
<g id="node1" class="node">
<title>union_0_0</title>
<ellipse fill="#1abc9c" stroke="white" cx="219" cy="-630" rx="4.5" ry="4.5"/>
</g>
<!-- siblings_0_0 -->
<g id="node4" class="node">
<title>siblings_0_0</title>
<polygon fill="#1abc9c" stroke="#cccccc" stroke-width="0" points="261.5,-630.5 252.5,-630.5 252.5,-629.5 261.5,-629.5 261.5,-630.5"/>
</g>
<!-- union_0_0&#45;&gt;siblings_0_0 -->
<g id="edge3" class="edge">
<title>union_0_0&#45;&gt;siblings_0_0</title>
<path fill="none" stroke="#1abc9c" d="M223.66,-630C230.95,-630 244.99,-630 252.3,-630"/>
</g>
<!-- Jay -->
<g id="node2" class="node">
<title>Jay</title>
<g id="a_node2"><a xlink:href="https://modernfamily.fandom.com/wiki/Jay_Pritchett" xlink:title="&lt;TABLE&gt;">
<polygon fill="white" stroke="#cccccc" points="184,-621 19,-621 19,-577 184,-577 184,-621"/>
<image xlink:href="pics/jay.png" width="37.8947px" height="40px" preserveAspectRatio="xMinYMin meet" x="21.5526" y="-619"/>
<text text-anchor="start" x="110" y="-608.8" font-family="Helvetica, Arial, sans-serif" font-size="14.00"> Jay</text>
<text text-anchor="start" x="100" y="-594.4" font-family="Helvetica, Arial, sans-serif" font-size="12.00" fill="#666666">Pritchett</text>
<text text-anchor="start" x="61.5" y="-581.5" font-family="Helvetica, Arial, sans-serif" font-size="10.00" fill="#aa7777"> * 1947&#45;05&#45;23 </text>
<text text-anchor="start" x="123.5" y="-581.5" font-family="Helvetica, Arial, sans-serif" font-size="10.00" fill="#aa7777"> &#160;</text>
</a>
</g>
</g>
<!-- Jay&#45;&gt;union_0_0 -->
<g id="edge1" class="edge">
<title>Jay&#45;&gt;union_0_0</title>
<path fill="none" stroke="#1abc9c" d="M184.1,-614.5C203.93,-614.5 219.5,-614.5 219.5,-614.5 219.5,-614.5 219.5,-620.86 219.5,-625.43"/>
</g>
<!-- union_3 -->
<g id="node22" class="node">
<title>union_3</title>
<ellipse fill="#9b59b6" stroke="white" cx="219" cy="-408" rx="4.5" ry="4.5"/>
<text text-anchor="middle" x="211.5" y="-396.3" font-family="Helvetica, Arial, sans-serif" font-size="9.00" fill="#660000">⚮</text>
</g>
<!-- Jay&#45;&gt;union_3 -->
<g id="edge19" class="edge">
<title>Jay&#45;&gt;union_3</title>
<path fill="none" stroke="#9b59b6" d="M184.35,-592.5C191.16,-592.5 195.5,-592.5 195.5,-592.5 195.5,-592.5 195.5,-409.5 195.5,-409.5 195.5,-409.5 207.64,-409.5 214.47,-409.5"/>
</g>
<!-- Gloria -->
<g id="node3" class="node">
<title>Gloria</title>
<g id="a_node3"><a xlink:href="https://modernfamily.fandom.com/wiki/Gloria_Pritchett" xlink:title="&lt;TABLE&gt;">
<polygon fill="white" stroke="#cccccc" points="185,-683 18,-683 18,-639 185,-639 185,-683"/>
<image xlink:href="pics/gloria.png" width="37.8947px" height="40px" preserveAspectRatio="xMinYMin meet" x="20.5526" y="-681"/>
<text text-anchor="start" x="102" y="-670.8" font-family="Helvetica, Arial, sans-serif" font-size="14.00"> Gloria</text>
<text text-anchor="start" x="61" y="-656.4" font-family="Helvetica, Arial, sans-serif" font-size="12.00" fill="#666666">Pritchett (neé Ramírez)</text>
<text text-anchor="start" x="60.5" y="-643.5" font-family="Helvetica, Arial, sans-serif" font-size="10.00" fill="#aa7777"> * 1971&#45;09&#45;24 </text>
<text text-anchor="start" x="123.5" y="-643.5" font-family="Helvetica, Arial, sans-serif" font-size="10.00" fill="#aa7777"> &#160;</text>
</a>
</g>
</g>
<!-- Gloria&#45;&gt;union_0_0 -->
<g id="edge2" class="edge">
<title>Gloria&#45;&gt;union_0_0</title>
<path fill="none" stroke="#1abc9c" d="M185.05,-647.67C204.43,-647.67 219.5,-647.67 219.5,-647.67 219.5,-647.67 219.5,-640.06 219.5,-634.83"/>
</g>
<!-- union_0_1 -->
<g id="node6" class="node">
<title>union_0_1</title>
<ellipse fill="#2ecc71" stroke="white" cx="219" cy="-537" rx="4.5" ry="4.5"/>
<text text-anchor="middle" x="211.5" y="-525.3" font-family="Helvetica, Arial, sans-serif" font-size="9.00" fill="#660000">⚮</text>
</g>
<!-- Gloria&#45;&gt;union_0_1 -->
<g id="edge5" class="edge">
<title>Gloria&#45;&gt;union_0_1</title>
<path fill="none" stroke="#2ecc71" d="M185.45,-643.33C197.27,-643.33 205.5,-643.33 205.5,-643.33 205.5,-643.33 205.5,-538.5 205.5,-538.5 205.5,-538.5 210.77,-538.5 214.73,-538.5"/>
</g>
<!-- Joe -->
<g id="node5" class="node">
<title>Joe</title>
<g id="a_node5"><a xlink:href="https://modernfamily.fandom.com/wiki/Joe_Pritchett" xlink:title="&lt;TABLE&gt;">
<polygon fill="white" stroke="#cccccc" points="455.5,-652 290.5,-652 290.5,-608 455.5,-608 455.5,-652"/>
<image xlink:href="pics/joe.png" width="37.8947px" height="40px" preserveAspectRatio="xMinYMin meet" x="293.053" y="-650"/>
<text text-anchor="start" x="381" y="-639.8" font-family="Helvetica, Arial, sans-serif" font-size="14.00"> Joe</text>
<text text-anchor="start" x="371.5" y="-625.4" font-family="Helvetica, Arial, sans-serif" font-size="12.00" fill="#666666">Pritchett</text>
<text text-anchor="start" x="333" y="-612.5" font-family="Helvetica, Arial, sans-serif" font-size="10.00" fill="#aa7777"> * 2013&#45;01&#45;20 </text>
<text text-anchor="start" x="395" y="-612.5" font-family="Helvetica, Arial, sans-serif" font-size="10.00" fill="#aa7777"> &#160;</text>
</a>
</g>
</g>
<!-- siblings_0_0&#45;&gt;Joe -->
<g id="edge4" class="edge">
<title>siblings_0_0&#45;&gt;Joe</title>
<path fill="none" stroke="#1abc9c" d="M261.69,-630C261.69,-630 280.41,-630 280.41,-630"/>
<polygon fill="#1abc9c" stroke="#1abc9c" points="288.41,-620 288.41,-640 284.41,-640 284.41,-620 288.41,-620"/>
<polyline fill="none" stroke="#1abc9c" points="290.41,-630 280.41,-630 "/>
</g>
<!-- siblings_0_1 -->
<g id="node8" class="node">
<title>siblings_0_1</title>
<polygon fill="#2ecc71" stroke="#cccccc" stroke-width="0" points="261.5,-537.5 252.5,-537.5 252.5,-536.5 261.5,-536.5 261.5,-537.5"/>
</g>
<!-- union_0_1&#45;&gt;siblings_0_1 -->
<g id="edge7" class="edge">
<title>union_0_1&#45;&gt;siblings_0_1</title>
<path fill="none" stroke="#2ecc71" d="M223.66,-537C230.95,-537 244.99,-537 252.3,-537"/>
</g>
<!-- Javier -->
<g id="node7" class="node">
<title>Javier</title>
<g id="a_node7"><a xlink:href="https://modernfamily.fandom.com/wiki/Javier_Delgado" xlink:title="&lt;TABLE&gt;">
<polygon fill="#f4f4f4" stroke="white" points="183.5,-559 19.5,-559 19.5,-515 183.5,-515 183.5,-559"/>
<image xlink:href="pics/javier.png" width="37.8947px" height="40px" preserveAspectRatio="xMinYMin meet" x="21.5526" y="-557"/>
<text text-anchor="start" x="102" y="-546.8" font-family="Helvetica, Arial, sans-serif" font-size="14.00"> Javier</text>
<text text-anchor="start" x="99" y="-532.4" font-family="Helvetica, Arial, sans-serif" font-size="12.00" fill="#666666">Delgado</text>
<text text-anchor="start" x="61.5" y="-519.5" font-family="Helvetica, Arial, sans-serif" font-size="10.00" fill="#aa7777"> * 1969 </text>
<text text-anchor="start" x="122.5" y="-519.5" font-family="Helvetica, Arial, sans-serif" font-size="10.00" fill="#aa7777"> &#160;</text>
</a>
</g>
</g>
<!-- Javier&#45;&gt;union_0_1 -->
<g id="edge6" class="edge">
<title>Javier&#45;&gt;union_0_1</title>
<path fill="none" stroke="#2ecc71" d="M183.75,-535.5C197.01,-535.5 208.37,-535.5 214.39,-535.5"/>
</g>
<!-- Manny -->
<g id="node9" class="node">
<title>Manny</title>
<g id="a_node9"><a xlink:href="https://modernfamily.fandom.com/wiki/Manny_Delgado" xlink:title="&lt;TABLE&gt;">
<polygon fill="white" stroke="#cccccc" points="455.5,-559 290.5,-559 290.5,-515 455.5,-515 455.5,-559"/>
<image xlink:href="pics/manny.png" width="37.8947px" height="40px" preserveAspectRatio="xMinYMin meet" x="293.053" y="-557"/>
<text text-anchor="start" x="371" y="-546.8" font-family="Helvetica, Arial, sans-serif" font-size="14.00"> Manny</text>
<text text-anchor="start" x="371" y="-532.4" font-family="Helvetica, Arial, sans-serif" font-size="12.00" fill="#666666">Delgado</text>
<text text-anchor="start" x="333" y="-519.5" font-family="Helvetica, Arial, sans-serif" font-size="10.00" fill="#aa7777"> * 1999&#45;01&#45;19 </text>
<text text-anchor="start" x="395" y="-519.5" font-family="Helvetica, Arial, sans-serif" font-size="10.00" fill="#aa7777"> &#160;</text>
</a>
</g>
</g>
<!-- siblings_0_1&#45;&gt;Manny -->
<g id="edge8" class="edge">
<title>siblings_0_1&#45;&gt;Manny</title>
<path fill="none" stroke="#2ecc71" d="M261.69,-537C261.69,-537 280.41,-537 280.41,-537"/>
<polygon fill="#2ecc71" stroke="#2ecc71" points="288.41,-527 288.41,-547 284.41,-547 284.41,-527 288.41,-527"/>
<polyline fill="none" stroke="#2ecc71" points="290.41,-537 280.41,-537 "/>
</g>
<!-- union_1_0 -->
<g id="node10" class="node">
<title>union_1_0</title>
<ellipse fill="#1abc9c" stroke="white" cx="489" cy="-377" rx="4.5" ry="4.5"/>
</g>
<!-- siblings_1_0 -->
<g id="node13" class="node">
<title>siblings_1_0</title>
<polygon fill="#1abc9c" stroke="#cccccc" stroke-width="0" points="531.5,-377.5 522.5,-377.5 522.5,-376.5 531.5,-376.5 531.5,-377.5"/>
</g>
<!-- union_1_0&#45;&gt;siblings_1_0 -->
<g id="edge11" class="edge">
<title>union_1_0&#45;&gt;siblings_1_0</title>
<path fill="none" stroke="#1abc9c" d="M493.66,-377C500.95,-377 514.99,-377 522.3,-377"/>
</g>
<!-- Phil -->
<g id="node11" class="node">
<title>Phil</title>
<g id="a_node11"><a xlink:href="https://modernfamily.fandom.com/wiki/Phil_Dunphy" xlink:title="&lt;TABLE&gt;">
<polygon fill="white" stroke="#cccccc" points="455.5,-368 290.5,-368 290.5,-324 455.5,-324 455.5,-368"/>
<image xlink:href="pics/phil.png" width="37.8947px" height="40px" preserveAspectRatio="xMinYMin meet" x="293.053" y="-366"/>
<text text-anchor="start" x="380.5" y="-355.8" font-family="Helvetica, Arial, sans-serif" font-size="14.00"> Phil</text>
<text text-anchor="start" x="372.5" y="-341.4" font-family="Helvetica, Arial, sans-serif" font-size="12.00" fill="#666666">Dunphy</text>
<text text-anchor="start" x="333" y="-328.5" font-family="Helvetica, Arial, sans-serif" font-size="10.00" fill="#aa7777"> * 1968&#45;04&#45;03 </text>
<text text-anchor="start" x="395" y="-328.5" font-family="Helvetica, Arial, sans-serif" font-size="10.00" fill="#aa7777"> &#160;</text>
</a>
</g>
</g>
<!-- Phil&#45;&gt;union_1_0 -->
<g id="edge9" class="edge">
<title>Phil&#45;&gt;union_1_0</title>
<path fill="none" stroke="#1abc9c" d="M455.56,-361.5C475.16,-361.5 490.5,-361.5 490.5,-361.5 490.5,-361.5 490.5,-367.86 490.5,-372.43"/>
</g>
<!-- Claire -->
<g id="node12" class="node">
<title>Claire</title>
<g id="a_node12"><a xlink:href="https://modernfamily.fandom.com/wiki/Claire_Dunphy" xlink:title="&lt;TABLE&gt;">
<polygon fill="white" stroke="#cccccc" points="455.5,-430 290.5,-430 290.5,-386 455.5,-386 455.5,-430"/>
<image xlink:href="pics/claire.png" width="37.8947px" height="40px" preserveAspectRatio="xMinYMin meet" x="293.053" y="-428"/>
<text text-anchor="start" x="374" y="-417.8" font-family="Helvetica, Arial, sans-serif" font-size="14.00"> Claire</text>
<text text-anchor="start" x="333.5" y="-403.4" font-family="Helvetica, Arial, sans-serif" font-size="12.00" fill="#666666">Dunphy (neé Pritchett)</text>
<text text-anchor="start" x="333" y="-390.5" font-family="Helvetica, Arial, sans-serif" font-size="10.00" fill="#aa7777"> * 1970&#45;03&#45;03 </text>
<text text-anchor="start" x="395" y="-390.5" font-family="Helvetica, Arial, sans-serif" font-size="10.00" fill="#aa7777"> &#160;</text>
</a>
</g>
</g>
<!-- Claire&#45;&gt;union_1_0 -->
<g id="edge10" class="edge">
<title>Claire&#45;&gt;union_1_0</title>
<path fill="none" stroke="#1abc9c" d="M455.8,-392.5C474.78,-392.5 489.5,-392.5 489.5,-392.5 489.5,-392.5 489.5,-386.14 489.5,-381.57"/>
</g>
<!-- Alex -->
<g id="node14" class="node">
<title>Alex</title>
<g id="a_node14"><a xlink:href="https://modernfamily.fandom.com/wiki/Alex_Dunphy" xlink:title="&lt;TABLE&gt;">
<polygon fill="white" stroke="#cccccc" points="726,-399 561,-399 561,-355 726,-355 726,-399"/>
<image xlink:href="pics/alex.png" width="37.8947px" height="40px" preserveAspectRatio="xMinYMin meet" x="563.553" y="-397"/>
<text text-anchor="start" x="649" y="-386.8" font-family="Helvetica, Arial, sans-serif" font-size="14.00"> Alex</text>
<text text-anchor="start" x="643" y="-372.4" font-family="Helvetica, Arial, sans-serif" font-size="12.00" fill="#666666">Dunphy</text>
<text text-anchor="start" x="603.5" y="-359.5" font-family="Helvetica, Arial, sans-serif" font-size="10.00" fill="#aa7777"> * 1997&#45;01&#45;14 </text>
<text text-anchor="start" x="665.5" y="-359.5" font-family="Helvetica, Arial, sans-serif" font-size="10.00" fill="#aa7777"> &#160;</text>
</a>
</g>
</g>
<!-- siblings_1_0&#45;&gt;Alex -->
<g id="edge12" class="edge">
<title>siblings_1_0&#45;&gt;Alex</title>
<path fill="none" stroke="#1abc9c" d="M531.71,-377C531.71,-377 550.82,-377 550.82,-377"/>
<polygon fill="#1abc9c" stroke="#1abc9c" points="558.82,-367 558.83,-387 554.83,-387 554.82,-367 558.82,-367"/>
<polyline fill="none" stroke="#1abc9c" points="560.82,-377 550.82,-377 "/>
</g>
<!-- Luke -->
<g id="node15" class="node">
<title>Luke</title>
<g id="a_node15"><a xlink:href="https://modernfamily.fandom.com/wiki/Luke_Dunphy" xlink:title="&lt;TABLE&gt;">
<polygon fill="white" stroke="#cccccc" points="726,-461 561,-461 561,-417 726,-417 726,-461"/>
<image xlink:href="pics/luke.png" width="37.8947px" height="40px" preserveAspectRatio="xMinYMin meet" x="563.553" y="-459"/>
<text text-anchor="start" x="647.5" y="-448.8" font-family="Helvetica, Arial, sans-serif" font-size="14.00"> Luke</text>
<text text-anchor="start" x="643" y="-434.4" font-family="Helvetica, Arial, sans-serif" font-size="12.00" fill="#666666">Dunphy</text>
<text text-anchor="start" x="603.5" y="-421.5" font-family="Helvetica, Arial, sans-serif" font-size="10.00" fill="#aa7777"> * 1998&#45;11&#45;28 </text>
<text text-anchor="start" x="665.5" y="-421.5" font-family="Helvetica, Arial, sans-serif" font-size="10.00" fill="#aa7777"> &#160;</text>
</a>
</g>
</g>
<!-- siblings_1_0&#45;&gt;Luke -->
<g id="edge13" class="edge">
<title>siblings_1_0&#45;&gt;Luke</title>
<path fill="none" stroke="#1abc9c" d="M527.5,-377.52C527.5,-382.63 527.5,-423.5 527.5,-423.5 527.5,-423.5 550.74,-423.5 550.74,-423.5"/>
<polygon fill="#1abc9c" stroke="#1abc9c" points="558.74,-413.5 558.74,-433.5 554.74,-433.5 554.74,-413.5 558.74,-413.5"/>
<polyline fill="none" stroke="#1abc9c" points="560.74,-423.5 550.74,-423.5 "/>
</g>
<!-- Haley -->
<g id="node16" class="node">
<title>Haley</title>
<g id="a_node16"><a xlink:href="https://modernfamily.fandom.com/wiki/Haley_Marshall" xlink:title="&lt;TABLE&gt;">
<polygon fill="white" stroke="#cccccc" points="726.5,-337 560.5,-337 560.5,-293 726.5,-293 726.5,-337"/>
<image xlink:href="pics/haley.png" width="37.8947px" height="40px" preserveAspectRatio="xMinYMin meet" x="562.553" y="-335"/>
<text text-anchor="start" x="644.5" y="-324.8" font-family="Helvetica, Arial, sans-serif" font-size="14.00"> Haley</text>
<text text-anchor="start" x="603" y="-310.4" font-family="Helvetica, Arial, sans-serif" font-size="12.00" fill="#666666">Marshall (neé Dunphy)</text>
<text text-anchor="start" x="602.5" y="-297.5" font-family="Helvetica, Arial, sans-serif" font-size="10.00" fill="#aa7777"> * 1993&#45;12&#45;10 </text>
<text text-anchor="start" x="664.5" y="-297.5" font-family="Helvetica, Arial, sans-serif" font-size="10.00" fill="#aa7777"> &#160;</text>
</a>
</g>
</g>
<!-- siblings_1_0&#45;&gt;Haley -->
<g id="edge14" class="edge">
<title>siblings_1_0&#45;&gt;Haley</title>
<path fill="none" stroke="#1abc9c" d="M527.5,-376.48C527.5,-371.37 527.5,-330.5 527.5,-330.5 527.5,-330.5 550.43,-330.5 550.43,-330.5"/>
<polygon fill="#1abc9c" stroke="#1abc9c" points="558.43,-320.5 558.43,-340.5 554.43,-340.5 554.43,-320.5 558.43,-320.5"/>
<polyline fill="none" stroke="#1abc9c" points="560.43,-330.5 550.43,-330.5 "/>
</g>
<!-- union_2_0 -->
<g id="node17" class="node">
<title>union_2_0</title>
<ellipse fill="#1abc9c" stroke="white" cx="489" cy="-186" rx="4.5" ry="4.5"/>
</g>
<!-- siblings_2_0 -->
<g id="node20" class="node">
<title>siblings_2_0</title>
<polygon fill="#1abc9c" stroke="#cccccc" stroke-width="0" points="531.5,-186.5 522.5,-186.5 522.5,-185.5 531.5,-185.5 531.5,-186.5"/>
</g>
<!-- union_2_0&#45;&gt;siblings_2_0 -->
<g id="edge17" class="edge">
<title>union_2_0&#45;&gt;siblings_2_0</title>
<path fill="none" stroke="#1abc9c" d="M493.66,-186C500.95,-186 514.99,-186 522.3,-186"/>
</g>
<!-- Cam -->
<g id="node18" class="node">
<title>Cam</title>
<g id="a_node18"><a xlink:href="https://modernfamily.fandom.com/wiki/Cameron_Tucker" xlink:title="&lt;TABLE&gt;">
<polygon fill="white" stroke="#cccccc" points="455.5,-177 290.5,-177 290.5,-133 455.5,-133 455.5,-177"/>
<image xlink:href="pics/cam.png" width="37.8947px" height="40px" preserveAspectRatio="xMinYMin meet" x="293.053" y="-175"/>
<text text-anchor="start" x="377" y="-164.8" font-family="Helvetica, Arial, sans-serif" font-size="14.00"> Cam</text>
<text text-anchor="start" x="376" y="-150.4" font-family="Helvetica, Arial, sans-serif" font-size="12.00" fill="#666666">Tucker</text>
<text text-anchor="start" x="333" y="-137.5" font-family="Helvetica, Arial, sans-serif" font-size="10.00" fill="#aa7777"> * 1972&#45;02&#45;29 </text>
<text text-anchor="start" x="395" y="-137.5" font-family="Helvetica, Arial, sans-serif" font-size="10.00" fill="#aa7777"> &#160;</text>
</a>
</g>
</g>
<!-- Cam&#45;&gt;union_2_0 -->
<g id="edge15" class="edge">
<title>Cam&#45;&gt;union_2_0</title>
<path fill="none" stroke="#1abc9c" d="M455.8,-170.5C474.78,-170.5 489.5,-170.5 489.5,-170.5 489.5,-170.5 489.5,-176.86 489.5,-181.43"/>
</g>
<!-- Mitchell -->
<g id="node19" class="node">
<title>Mitchell</title>
<g id="a_node19"><a xlink:href="https://modernfamily.fandom.com/wiki/Mitchell_Pritchett" xlink:title="&lt;TABLE&gt;">
<polygon fill="white" stroke="#cccccc" points="455.5,-239 290.5,-239 290.5,-195 455.5,-195 455.5,-239"/>
<image xlink:href="pics/mitchell.png" width="37.8947px" height="40px" preserveAspectRatio="xMinYMin meet" x="293.053" y="-237"/>
<text text-anchor="start" x="368.5" y="-226.8" font-family="Helvetica, Arial, sans-serif" font-size="14.00"> Mitchell</text>
<text text-anchor="start" x="371.5" y="-212.4" font-family="Helvetica, Arial, sans-serif" font-size="12.00" fill="#666666">Pritchett</text>
<text text-anchor="start" x="333" y="-199.5" font-family="Helvetica, Arial, sans-serif" font-size="10.00" fill="#aa7777"> * 1973&#45;01&#45;06 </text>
<text text-anchor="start" x="395" y="-199.5" font-family="Helvetica, Arial, sans-serif" font-size="10.00" fill="#aa7777"> &#160;</text>
</a>
</g>
</g>
<!-- Mitchell&#45;&gt;union_2_0 -->
<g id="edge16" class="edge">
<title>Mitchell&#45;&gt;union_2_0</title>
<path fill="none" stroke="#1abc9c" d="M455.61,-201.5C473.66,-201.5 487.5,-201.5 487.5,-201.5 487.5,-201.5 487.5,-195.14 487.5,-190.57"/>
</g>
<!-- Lily -->
<g id="node21" class="node">
<title>Lily</title>
<g id="a_node21"><a xlink:href="https://modernfamily.fandom.com/wiki/Lily_Tucker_Pritchett" xlink:title="&lt;TABLE&gt;">
<polygon fill="white" stroke="#cccccc" points="726,-208 561,-208 561,-164 726,-164 726,-208"/>
<image xlink:href="pics/lily.png" width="37.8947px" height="40px" preserveAspectRatio="xMinYMin meet" x="563.553" y="-206"/>
<text text-anchor="start" x="652" y="-195.8" font-family="Helvetica, Arial, sans-serif" font-size="14.00"> Lily</text>
<text text-anchor="start" x="623" y="-181.4" font-family="Helvetica, Arial, sans-serif" font-size="12.00" fill="#666666">Tucker Pritchett</text>
<text text-anchor="start" x="603.5" y="-168.5" font-family="Helvetica, Arial, sans-serif" font-size="10.00" fill="#aa7777"> * 2009&#45;02&#45;16 </text>
<text text-anchor="start" x="665.5" y="-168.5" font-family="Helvetica, Arial, sans-serif" font-size="10.00" fill="#aa7777"> &#160;</text>
</a>
</g>
</g>
<!-- siblings_2_0&#45;&gt;Lily -->
<g id="edge18" class="edge">
<title>siblings_2_0&#45;&gt;Lily</title>
<path fill="none" stroke="#1abc9c" d="M531.71,-186C531.71,-186 550.82,-186 550.82,-186"/>
<polygon fill="#1abc9c" stroke="#1abc9c" points="558.82,-176 558.83,-196 554.83,-196 554.82,-176 558.82,-176"/>
<polyline fill="none" stroke="#1abc9c" points="560.82,-186 550.82,-186 "/>
</g>
<!-- siblings_3 -->
<g id="node24" class="node">
<title>siblings_3</title>
<polygon fill="#9b59b6" stroke="#cccccc" stroke-width="0" points="261.5,-408.5 252.5,-408.5 252.5,-407.5 261.5,-407.5 261.5,-408.5"/>
</g>
<!-- union_3&#45;&gt;siblings_3 -->
<g id="edge21" class="edge">
<title>union_3&#45;&gt;siblings_3</title>
<path fill="none" stroke="#9b59b6" d="M223.66,-408C230.95,-408 244.99,-408 252.3,-408"/>
</g>
<!-- Dede -->
<g id="node23" class="node">
<title>Dede</title>
<g id="a_node23"><a xlink:href="https://modernfamily.fandom.com/wiki/DeDe_Pritchett" xlink:title="&lt;TABLE&gt;">
<polygon fill="#f4f4f4" stroke="white" points="185.5,-430 17.5,-430 17.5,-386 185.5,-386 185.5,-430"/>
<image xlink:href="pics/dede.png" width="37.8947px" height="40px" preserveAspectRatio="xMinYMin meet" x="19.5526" y="-428"/>
<text text-anchor="start" x="102.5" y="-417.8" font-family="Helvetica, Arial, sans-serif" font-size="14.00"> DeDe</text>
<text text-anchor="start" x="60" y="-403.4" font-family="Helvetica, Arial, sans-serif" font-size="12.00" fill="#666666">Pritchett (neé Williams)</text>
<text text-anchor="start" x="59.5" y="-390.5" font-family="Helvetica, Arial, sans-serif" font-size="10.00" fill="#aa7777"> * 1948&#45;01&#45;23 </text>
<text text-anchor="start" x="121.5" y="-390.5" font-family="Helvetica, Arial, sans-serif" font-size="10.00" fill="#aa7777"> † 2018&#45;10&#45;31 </text>
</a>
</g>
</g>
<!-- Dede&#45;&gt;union_3 -->
<g id="edge20" class="edge">
<title>Dede&#45;&gt;union_3</title>
<path fill="none" stroke="#9b59b6" d="M185.64,-406.5C198.3,-406.5 209.01,-406.5 214.67,-406.5"/>
</g>
<!-- siblings_3&#45;&gt;Claire -->
<g id="edge22" class="edge">
<title>siblings_3&#45;&gt;Claire</title>
<path fill="none" stroke="#9b59b6" d="M261.69,-408C261.69,-408 280.41,-408 280.41,-408"/>
<polygon fill="#9b59b6" stroke="#9b59b6" points="288.41,-398 288.41,-418 284.41,-418 284.41,-398 288.41,-398"/>
<polyline fill="none" stroke="#9b59b6" points="290.41,-408 280.41,-408 "/>
</g>
<!-- siblings_3&#45;&gt;Mitchell -->
<g id="edge23" class="edge">
<title>siblings_3&#45;&gt;Mitchell</title>
<path fill="none" stroke="#9b59b6" d="M257.5,-407.43C257.5,-404.89 257.5,-394.75 257.5,-394.75 257.5,-394.75 276.5,-394.75 276.5,-394.75 276.5,-394.75 276.5,-217 276.5,-217 276.5,-217 280.33,-217 280.33,-217"/>
<polygon fill="#9b59b6" stroke="#9b59b6" points="288.33,-207 288.33,-227 284.33,-227 284.33,-207 288.33,-207"/>
<polyline fill="none" stroke="#9b59b6" points="290.33,-217 280.33,-217 "/>
</g>
<!-- union_4 -->
<g id="node25" class="node">
<title>union_4</title>
<ellipse fill="#34495e" stroke="white" cx="219" cy="-346" rx="4.5" ry="4.5"/>
</g>
<!-- siblings_4 -->
<g id="node28" class="node">
<title>siblings_4</title>
<polygon fill="#34495e" stroke="#cccccc" stroke-width="0" points="261.5,-346.5 252.5,-346.5 252.5,-345.5 261.5,-345.5 261.5,-346.5"/>
</g>
<!-- union_4&#45;&gt;siblings_4 -->
<g id="edge26" class="edge">
<title>union_4&#45;&gt;siblings_4</title>
<path fill="none" stroke="#34495e" d="M223.66,-346C230.95,-346 244.99,-346 252.3,-346"/>
</g>
<!-- Frank -->
<g id="node26" class="node">
<title>Frank</title>
<g id="a_node26"><a xlink:href="https://modernfamily.fandom.com/wiki/Frank_Dunphy" xlink:title="&lt;TABLE&gt;">
<polygon fill="#f4f4f4" stroke="white" points="183.5,-368 19.5,-368 19.5,-324 183.5,-324 183.5,-368"/>
<image xlink:href="pics/frank.png" width="37.8947px" height="40px" preserveAspectRatio="xMinYMin meet" x="21.5526" y="-366"/>
<text text-anchor="start" x="102.5" y="-355.8" font-family="Helvetica, Arial, sans-serif" font-size="14.00"> Frank</text>
<text text-anchor="start" x="100.5" y="-341.4" font-family="Helvetica, Arial, sans-serif" font-size="12.00" fill="#666666">Dunphy</text>
<text text-anchor="start" x="61.5" y="-328.5" font-family="Helvetica, Arial, sans-serif" font-size="10.00" fill="#aa7777"> &#160;&#160;</text>
<text text-anchor="start" x="122.5" y="-328.5" font-family="Helvetica, Arial, sans-serif" font-size="10.00" fill="#aa7777"> † 2019 </text>
</a>
</g>
</g>
<!-- Frank&#45;&gt;union_4 -->
<g id="edge24" class="edge">
<title>Frank&#45;&gt;union_4</title>
<path fill="none" stroke="#34495e" d="M183.75,-346C197.01,-346 208.37,-346 214.39,-346"/>
</g>
<!-- Grace -->
<g id="node27" class="node">
<title>Grace</title>
<g id="a_node27"><a xlink:href="https://modernfamily.fandom.com/wiki/Grace_Dunphy" xlink:title="&lt;TABLE&gt;">
<polygon fill="#f4f4f4" stroke="white" points="183.5,-306 19.5,-306 19.5,-262 183.5,-262 183.5,-306"/>
<polygon fill="none" stroke="white" points="20.5,-264 20.5,-304 60.5,-304 60.5,-264 20.5,-264"/>
<text text-anchor="start" x="101" y="-293.8" font-family="Helvetica, Arial, sans-serif" font-size="14.00"> Grace</text>
<text text-anchor="start" x="100.5" y="-279.4" font-family="Helvetica, Arial, sans-serif" font-size="12.00" fill="#666666">Dunphy</text>
<text text-anchor="start" x="61.5" y="-266.5" font-family="Helvetica, Arial, sans-serif" font-size="10.00" fill="#aa7777"> &#160;&#160;</text>
<text text-anchor="start" x="122.5" y="-266.5" font-family="Helvetica, Arial, sans-serif" font-size="10.00" fill="#aa7777"> † 2013 </text>
</a>
</g>
</g>
<!-- Grace&#45;&gt;union_4 -->
<g id="edge25" class="edge">
<title>Grace&#45;&gt;union_4</title>
<path fill="none" stroke="#34495e" d="M183.78,-299.5C203.76,-299.5 219.5,-299.5 219.5,-299.5 219.5,-299.5 219.5,-329.61 219.5,-341.37"/>
</g>
<!-- siblings_4&#45;&gt;Phil -->
<g id="edge27" class="edge">
<title>siblings_4&#45;&gt;Phil</title>
<path fill="none" stroke="#34495e" d="M261.69,-346C261.69,-346 280.41,-346 280.41,-346"/>
<polygon fill="#34495e" stroke="#34495e" points="288.41,-336 288.41,-356 284.41,-356 284.41,-336 288.41,-336"/>
<polyline fill="none" stroke="#34495e" points="290.41,-346 280.41,-346 "/>
</g>
<!-- union_5 -->
<g id="node29" class="node">
<title>union_5</title>
<ellipse fill="#f1c40f" stroke="white" cx="219" cy="-91" rx="4.5" ry="4.5"/>
</g>
<!-- siblings_5 -->
<g id="node32" class="node">
<title>siblings_5</title>
<polygon fill="#f1c40f" stroke="#cccccc" stroke-width="0" points="261.5,-91.5 252.5,-91.5 252.5,-90.5 261.5,-90.5 261.5,-91.5"/>
</g>
<!-- union_5&#45;&gt;siblings_5 -->
<g id="edge30" class="edge">
<title>union_5&#45;&gt;siblings_5</title>
<path fill="none" stroke="#f1c40f" d="M223.66,-91C230.95,-91 244.99,-91 252.3,-91"/>
</g>
<!-- Barb -->
<g id="node30" class="node">
<title>Barb</title>
<g id="a_node30"><a xlink:href="https://modernfamily.fandom.com/wiki/Barb_Tucker" xlink:title="&lt;TABLE&gt;">
<polygon fill="#f4f4f4" stroke="white" points="183.5,-114 19.5,-114 19.5,-70 183.5,-70 183.5,-114"/>
<image xlink:href="pics/barb.png" width="37.8947px" height="40px" preserveAspectRatio="xMinYMin meet" x="21.5526" y="-112"/>
<text text-anchor="start" x="105.5" y="-101.8" font-family="Helvetica, Arial, sans-serif" font-size="14.00"> Barb</text>
<text text-anchor="start" x="104" y="-87.4" font-family="Helvetica, Arial, sans-serif" font-size="12.00" fill="#666666">Tucker</text>
<text text-anchor="start" x="61.5" y="-74.5" font-family="Helvetica, Arial, sans-serif" font-size="10.00" fill="#aa7777"> &#160;&#160;</text>
<text text-anchor="start" x="122.5" y="-74.5" font-family="Helvetica, Arial, sans-serif" font-size="10.00" fill="#aa7777"> &#160;</text>
</a>
</g>
</g>
<!-- Barb&#45;&gt;union_5 -->
<g id="edge28" class="edge">
<title>Barb&#45;&gt;union_5</title>
<path fill="none" stroke="#f1c40f" d="M183.75,-91C197.01,-91 208.37,-91 214.39,-91"/>
</g>
<!-- Merle -->
<g id="node31" class="node">
<title>Merle</title>
<g id="a_node31"><a xlink:href="https://modernfamily.fandom.com/wiki/Merle_Tucker" xlink:title="&lt;TABLE&gt;">
<polygon fill="#f4f4f4" stroke="white" points="183.5,-52 19.5,-52 19.5,-8 183.5,-8 183.5,-52"/>
<image xlink:href="pics/merle.png" width="37.8947px" height="40px" preserveAspectRatio="xMinYMin meet" x="21.5526" y="-50"/>
<text text-anchor="start" x="102.5" y="-39.8" font-family="Helvetica, Arial, sans-serif" font-size="14.00"> Merle</text>
<text text-anchor="start" x="104" y="-25.4" font-family="Helvetica, Arial, sans-serif" font-size="12.00" fill="#666666">Tucker</text>
<text text-anchor="start" x="61.5" y="-12.5" font-family="Helvetica, Arial, sans-serif" font-size="10.00" fill="#aa7777"> &#160;&#160;</text>
<text text-anchor="start" x="122.5" y="-12.5" font-family="Helvetica, Arial, sans-serif" font-size="10.00" fill="#aa7777"> &#160;</text>
</a>
</g>
</g>
<!-- Merle&#45;&gt;union_5 -->
<g id="edge29" class="edge">
<title>Merle&#45;&gt;union_5</title>
<path fill="none" stroke="#f1c40f" d="M183.78,-30C203.76,-30 219.5,-30 219.5,-30 219.5,-30 219.5,-71.83 219.5,-86.21"/>
</g>
<!-- siblings_5&#45;&gt;Cam -->
<g id="edge31" class="edge">
<title>siblings_5&#45;&gt;Cam</title>
<path fill="none" stroke="#f1c40f" d="M257.5,-91.72C257.5,-98.75 257.5,-155 257.5,-155 257.5,-155 280.29,-155 280.29,-155"/>
<polygon fill="#f1c40f" stroke="#f1c40f" points="288.29,-145 288.29,-165 284.29,-165 284.29,-145 288.29,-145"/>
<polyline fill="none" stroke="#f1c40f" points="290.29,-155 280.29,-155 "/>
</g>
<!-- Pam -->
<g id="node33" class="node">
<title>Pam</title>
<g id="a_node33"><a xlink:href="https://modernfamily.fandom.com/wiki/Pam_Tucker" xlink:title="&lt;TABLE&gt;">
<polygon fill="#f4f4f4" stroke="white" points="455.5,-113 290.5,-113 290.5,-69 455.5,-69 455.5,-113"/>
<image xlink:href="pics/pam.png" width="37.8947px" height="40px" preserveAspectRatio="xMinYMin meet" x="293.053" y="-111"/>
<text text-anchor="start" x="377.5" y="-100.8" font-family="Helvetica, Arial, sans-serif" font-size="14.00"> Pam</text>
<text text-anchor="start" x="376" y="-86.4" font-family="Helvetica, Arial, sans-serif" font-size="12.00" fill="#666666">Tucker</text>
<text text-anchor="start" x="333" y="-73.5" font-family="Helvetica, Arial, sans-serif" font-size="10.00" fill="#aa7777"> * 1970&#45;12&#45;18 </text>
<text text-anchor="start" x="395" y="-73.5" font-family="Helvetica, Arial, sans-serif" font-size="10.00" fill="#aa7777"> &#160;</text>
</a>
</g>
</g>
<!-- siblings_5&#45;&gt;Pam -->
<g id="edge32" class="edge">
<title>siblings_5&#45;&gt;Pam</title>
<path fill="none" stroke="#f1c40f" d="M261.69,-91C261.69,-91 280.41,-91 280.41,-91"/>
<polygon fill="#f1c40f" stroke="#f1c40f" points="288.41,-81 288.41,-101 284.41,-101 284.41,-81 288.41,-81"/>
<polyline fill="none" stroke="#f1c40f" points="290.41,-91 280.41,-91 "/>
</g>
</g>
</svg>
