<?xml version="1.0" encoding="UTF-8" standalone="no"?>
<!-- Created with Inkscape (http://www.inkscape.org/) -->

<svg
   width="531.62543"
   height="195.51985"
   viewBox="0 0 140.65923 51.731294"
   version="1.1"
   id="svg5"
   inkscape:version="1.1.2 (0a00cf5339, 2022-02-04)"
   sodipodi:docname="nissagalogo.svg"
   xmlns:inkscape="http://www.inkscape.org/namespaces/inkscape"
   xmlns:sodipodi="http://sodipodi.sourceforge.net/DTD/sodipodi-0.dtd"
   xmlns="http://www.w3.org/2000/svg"
   xmlns:svg="http://www.w3.org/2000/svg">
  <sodipodi:namedview
     id="namedview7"
     pagecolor="#ffffff"
     bordercolor="#666666"
     borderopacity="1.0"
     inkscape:pageshadow="2"
     inkscape:pageopacity="0.0"
     inkscape:pagecheckerboard="0"
     inkscape:document-units="mm"
     showgrid="false"
     units="px"
     inkscape:zoom="0.57370932"
     inkscape:cx="296.31731"
     inkscape:cy="530.75659"
     inkscape:window-width="1920"
     inkscape:window-height="1015"
     inkscape:window-x="0"
     inkscape:window-y="0"
     inkscape:window-maximized="1"
     inkscape:current-layer="layer1"
     fit-margin-top="0"
     fit-margin-left="0"
     fit-margin-right="0"
     fit-margin-bottom="0"
     scale-x="0.99999995" />
  <defs
     id="defs2">
    <filter
       inkscape:collect="always"
       style="color-interpolation-filters:sRGB"
       id="filter16969"
       x="-0.016085063"
       y="-0.043735859"
       width="1.0321701"
       height="1.0874717">
      <feGaussianBlur
         inkscape:collect="always"
         stdDeviation="0.94271355"
         id="feGaussianBlur16971" />
    </filter>
  </defs>
  <g
     inkscape:label="Capa 1"
     inkscape:groupmode="layer"
     id="layer1"
     transform="translate(-26.603991,-7.6406459)">
    <g
       aria-label="Nissaga"
       id="g16945"
       style="font-weight:bold;font-size:28.2222px;line-height:1.25;font-family:Elegante;-inkscape-font-specification:'Elegante, Bold';letter-spacing:0px;word-spacing:0px;fill:#808080;stroke-width:0.264583;filter:url(#filter16969)">
      <path
         d="m 60.498854,45.65595 -0.649111,-0.620889 v -0.592666 q 0.366889,-0.90311 0.733777,-1.777998 0.395111,-0.903111 0.762,-1.777999 l -0.02822,0.02822 q 0.39511,-0.959555 0.64911,-1.862665 0.254,-0.90311 0.395111,-1.721554 0.479777,-2.963331 1.015999,-5.64444 0.564444,-2.681109 1.213555,-4.854219 0.282222,-0.931332 0.451555,-1.523999 0.169333,-0.592666 0.395111,-1.241776 0.225778,-0.649111 0.564444,-1.523999 0.366889,-0.903111 1.015999,-2.42711 -2.511776,2.991554 -4.967107,5.954885 -2.427109,2.935109 -4.910663,5.926662 -11.683991,14.082878 -22.662427,14.082878 -1.467554,0 -2.709331,-0.282222 -1.241777,-0.310444 -2.314221,-0.874888 -2.850442,-1.552221 -2.850442,-4.374441 0,-1.382888 0.733777,-2.370665 0.762,-0.987777 2.144888,-0.987777 0.451555,0 0.90311,0.169333 0.451555,0.169333 0.790222,0.479777 0.338666,0.310445 0.536221,0.733778 0.225778,0.39511 0.225778,0.846666 0,2.31422 -2.652887,2.31422 -0.141111,0 -0.310444,0 -0.141111,-0.02822 -0.282222,-0.05644 0.564444,1.298221 2.003776,2.003776 1.439332,0.677333 3.809997,0.677333 4.99533,0 10.301103,-3.386664 5.333996,-3.386664 11.006659,-10.216437 4.035774,-4.825996 8.240882,-9.990659 4.23333,-5.192885 8.692438,-10.752658 l 0.705555,-0.2257779 0.733777,0.5644439 -0.02822,0.620889 q -0.564444,1.185332 -1.185333,2.455331 -0.620888,1.241777 -1.185332,2.427109 v -0.02822 q -0.564444,1.298221 -1.015999,2.539998 -0.423333,1.241777 -0.677333,2.427109 -0.705555,3.386664 -1.269999,5.813774 -0.536222,2.398887 -0.987777,3.922885 -0.254,0.818444 -0.366889,1.269999 -0.112888,0.423333 -0.253999,0.903111 -0.141111,0.479777 -0.423333,1.213554 -0.282222,0.733778 -0.874889,2.116666 3.132665,-3.866442 6.208884,-7.676439 3.104442,-3.809997 6.237107,-7.676439 2.06022,-2.56822 4.543774,-4.825996 2.511776,-2.285998 4.995329,-3.97933 3.160887,-2.0602207 6.208885,-3.1326643 3.076219,-1.1006658 5.983101,-1.1006658 1.18533,0 2.25778,0.2539998 1.10066,0.2539998 2.08844,0.705555 1.27,0.6491106 1.94733,1.5522213 0.70556,0.874888 0.70556,2.06022 0,0.536222 -0.22578,1.016 -0.19756,0.479777 -0.56444,0.846666 -0.33867,0.338666 -0.81845,0.536221 -0.47978,0.197556 -1.016,0.197556 -1.83444,0 -1.83444,-2.257776 0,-1.382888 1.66511,-1.91911 -0.56445,-0.592666 -1.60867,-0.9031103 -1.016,-0.3386664 -2.51177,-0.3386664 -2.624663,0 -5.587994,1.0442217 -2.935109,1.044221 -5.813773,2.906886 -2.483554,1.66511 -4.797774,3.809997 -2.285999,2.144888 -4.402664,4.713108 -1.185332,1.439332 -2.342442,2.878664 -1.128888,1.41111 -2.314221,2.850443 h 0.02822 q -1.185332,1.439332 -2.370664,2.850442 -1.157111,1.41111 -2.342443,2.850442 h 0.02822 q -2.709331,3.358442 -4.938885,6.321773 -2.201332,2.935109 -3.951108,5.503329 z"
         id="path16931"
         style="fill:#808080" />
      <path
         d="m 86.181009,28.101741 q -0.451555,1.128888 -2.257776,2.257776 -0.705555,-0.451555 -1.241777,-1.015999 -0.536221,-0.592666 -0.931332,-1.298221 0.705555,-1.552221 2.201331,-2.370665 1.213555,0.536222 2.17311,1.947332 z m -4.938885,5.475107 q -0.592666,0.649111 -1.298221,1.439332 -0.705555,0.762 -1.439332,1.580444 -0.733778,0.790221 -1.439333,1.580443 -0.705555,0.790221 -1.269999,1.439332 -1.439332,1.580443 -2.342442,2.681109 -0.931333,1.072444 -1.241777,1.552221 1.523999,-0.02822 4.825996,-2.285998 1.947332,-1.326444 2.991553,-1.975554 1.044222,-0.649111 1.439333,-0.649111 l 0.507999,0.733777 q -0.02822,0.733778 -1.326443,1.749777 -1.269999,0.987777 -3.414886,2.173109 -1.975554,0.987777 -3.527775,1.636888 -1.580444,0.64911 -2.285999,0.64911 -2.144887,0 -2.144887,-2.285998 0,-0.705555 0.310444,-1.523999 0.310445,-0.846666 0.790222,-1.608665 -0.141111,0.112889 -0.310444,0.197555 -0.197556,0.05644 -0.366889,0.169334 l -0.790221,-0.987777 0.423333,-0.733778 q 2.342442,-1.580443 4.205107,-2.935108 1.862666,-1.382888 3.273776,-2.596443 z"
         id="path16933"
         style="fill:#808080" />
      <path
         d="m 89.370069,35.637069 q -1.128888,0.790221 -3.019775,2.088443 -1.91911,1.298221 -4.515553,3.076219 h 0.282222 q 1.693332,0 1.693332,1.523999 0,1.298221 -0.874888,1.806221 3.58422,-0.423333 6.434662,-8.494882 z m 2.850442,2.003776 q 0,1.382888 -0.451555,2.539998 0.536222,-0.225778 1.213555,-0.564444 0.705555,-0.366889 1.580443,-0.846666 l 0.64911,0.874888 q 0,1.213555 -2.31422,2.088443 -0.790222,0.310444 -1.467554,0.508 -0.649111,0.197555 -1.157111,0.253999 -4.007552,3.527775 -7.365994,3.527775 -3.07622,0 -3.07622,-2.56822 0,-2.342442 1.806221,-2.624664 l -0.790222,-1.128888 q 0.169334,-0.282222 1.721555,-1.467555 1.523998,-1.213554 4.430885,-3.273775 2.906887,-2.060221 4.571997,-3.132664 1.665109,-1.100666 2.173109,-1.213555 l 1.015999,1.072444 q -0.423333,0.338666 -1.213554,0.987777 -0.762,0.620888 -1.580444,1.269999 -0.02822,0.197555 -0.02822,0.423333 0,0.197555 0,0.423333 0,0.225777 0.02822,0.592666 0.05644,0.338666 0.112889,0.761999 0.08467,0.423333 0.112889,0.818444 0.02822,0.395111 0.02822,0.677333 z"
         id="path16935"
         style="fill:#808080" />
      <path
         d="m 103.0578,35.637069 q -1.12889,0.790221 -3.01978,2.088443 -1.919107,1.298221 -4.51555,3.076219 h 0.282222 q 1.693332,0 1.693332,1.523999 0,1.298221 -0.874888,1.806221 3.584224,-0.423333 6.434664,-8.494882 z m 2.85044,2.003776 q 0,1.382888 -0.45156,2.539998 0.53623,-0.225778 1.21356,-0.564444 0.70555,-0.366889 1.58044,-0.846666 l 0.64911,0.874888 q 0,1.213555 -2.31422,2.088443 -0.79022,0.310444 -1.46755,0.508 -0.64911,0.197555 -1.15711,0.253999 -4.007554,3.527775 -7.365996,3.527775 -3.07622,0 -3.07622,-2.56822 0,-2.342442 1.806221,-2.624664 l -0.790222,-1.128888 q 0.169334,-0.282222 1.721555,-1.467555 1.523998,-1.213554 4.430882,-3.273775 2.90689,-2.060221 4.572,-3.132664 1.66511,-1.100666 2.17311,-1.213555 l 1.016,1.072444 q -0.42333,0.338666 -1.21356,0.987777 -0.762,0.620888 -1.58044,1.269999 -0.0282,0.197555 -0.0282,0.423333 0,0.197555 0,0.423333 0,0.225777 0.0282,0.592666 0.0564,0.338666 0.11289,0.761999 0.0847,0.423333 0.11289,0.818444 0.0282,0.395111 0.0282,0.677333 z"
         id="path16937"
         style="fill:#808080" />
      <path
         d="m 116.85842,43.567507 q -0.0564,0.112889 -0.0564,0.08467 0,-0.02822 0.0282,-0.08467 0.0282,-0.02822 0.0282,-0.02822 z m -6.096,0.536222 q 1.07244,0 2.62466,-0.733777 1.524,-0.762 3.38667,-2.144888 1.778,-1.41111 2.794,-2.709331 1.04422,-1.298221 1.04422,-2.285998 0,-0.818444 -1.016,-0.818444 -1.74978,0 -5.588,3.33022 -3.86644,3.358442 -3.86644,4.938885 0,0.423333 0.62089,0.423333 z m -3.13266,-1.495777 q 0,-1.66511 1.12888,-3.273775 1.10067,-1.636888 3.18911,-3.07622 1.94733,-1.326443 3.78178,-2.003776 1.83444,-0.677333 3.52777,-0.677333 2.93511,0 3.18911,2.144887 0.39511,-0.423333 0.84667,-0.959555 0.47977,-0.536221 1.04422,-1.185332 h 4.54377 q -0.31044,0.310444 -0.73377,0.790222 -0.42334,0.451555 -0.87489,0.931332 -0.45156,0.479778 -0.87489,0.959555 -0.42333,0.451555 -0.70556,0.762 -0.59266,0.64911 -1.18533,1.298221 -0.59266,0.620888 -1.15711,1.269999 -1.46755,1.636887 -2.42711,2.765775 -0.93133,1.128888 -1.18533,1.552221 0.59267,-0.05644 1.69333,-0.677332 1.10067,-0.620889 2.54,-1.608666 1.72155,-1.241777 2.76578,-1.919109 1.04422,-0.705555 1.29822,-0.790222 l 0.67733,0.818444 q -0.0282,0.705555 -1.15711,1.693332 -1.10067,0.959555 -3.16089,2.144887 -1.91911,1.072444 -3.33022,1.693332 -1.41111,0.620888 -2.06022,0.620888 -2.11666,0 -2.11666,-2.257776 0,-0.02822 -0.0282,-0.02822 0,0 0,-0.02822 0,-0.02822 0.0282,-0.05644 l -0.0282,0.02822 q 0,-0.05644 -0.0282,-0.02822 0,0 0,0.05644 -3.35844,2.342443 -5.84199,2.342443 -3.35844,0 -3.35844,-3.301998 z"
         id="path16939"
         style="fill:#808080" />
      <path
         d="m 119.11616,57.622163 q 2.90689,0 6.35,-3.471331 0.0847,-0.08467 0.254,-0.282222 0.14111,-0.197555 0.56444,-0.705555 0.39511,-0.479777 1.10067,-1.354665 0.70555,-0.874889 1.86266,-2.314221 -1.15711,0.451555 -2.03199,0.790222 -0.90311,0.366888 -1.60867,0.64911 -0.70555,0.310445 -1.21355,0.536222 -0.53623,0.254 -0.98778,0.479778 -2.286,1.241776 -3.64067,2.539998 -1.38288,1.326443 -1.38288,2.427109 0,0.705555 0.73377,0.705555 z m 10.922,-13.518434 q 2.20133,0 6.01132,-2.878665 3.86645,-2.935108 3.86645,-4.995329 0,-0.818444 -1.016,-0.818444 -1.74978,0 -5.61622,3.33022 -3.83822,3.330219 -3.83822,4.938885 0,0.423333 0.59267,0.423333 z M 143.4437,33.576848 h 4.45911 l -8.94644,10.188214 q 1.60867,-0.90311 3.302,-2.06022 1.72155,-1.185333 3.64066,-2.681109 1.18533,-0.197556 1.18533,0.761999 l -0.0282,0.395111 q -0.28222,0.423333 -1.29822,1.213555 -1.016,0.790221 -2.82222,1.975554 -1.60866,1.072443 -2.73755,1.749776 -1.10067,0.677333 -1.74978,0.987777 -0.47978,0.225778 -1.12889,0.508 -0.64911,0.310444 -1.43933,0.761999 l 0.0847,-0.05644 q -1.91911,1.80622 -3.83822,3.584219 -1.91911,1.806221 -3.83822,3.640664 -5.41866,4.825996 -9.14399,4.825996 -2.59645,0 -2.59645,-2.455331 0,-3.443109 6.26533,-6.603995 0.95956,-0.508 3.13267,-1.382888 2.14488,-0.846666 5.55977,-2.116665 0.33867,-0.423333 0.45156,-0.536222 0.11288,-0.112889 0.16933,-0.169333 0.0564,-0.05644 0.16933,-0.197555 0.0847,-0.112889 0.45156,-0.564444 -1.49578,0.592666 -2.73756,0.592666 -3.10444,0 -3.10444,-3.33022 0,-3.386664 4.34622,-6.349995 v 0.02822 q 3.92289,-2.709331 7.25311,-2.709331 2.73755,0 3.16088,1.834443 z"
         id="path16941"
         style="fill:#808080" />
      <path
         d="m 155.24056,43.567507 q -0.0564,0.112889 -0.0564,0.08467 0,-0.02822 0.0282,-0.08467 0.0282,-0.02822 0.0282,-0.02822 z m -6.09599,0.536222 q 1.07244,0 2.62466,-0.733777 1.524,-0.762 3.38667,-2.144888 1.778,-1.41111 2.794,-2.709331 1.04422,-1.298221 1.04422,-2.285998 0,-0.818444 -1.016,-0.818444 -1.74978,0 -5.588,3.33022 -3.86644,3.358442 -3.86644,4.938885 0,0.423333 0.62089,0.423333 z m -3.13267,-1.495777 q 0,-1.66511 1.12889,-3.273775 1.10067,-1.636888 3.18911,-3.07622 1.94733,-1.326443 3.78178,-2.003776 1.83444,-0.677333 3.52777,-0.677333 2.93511,0 3.18911,2.144887 0.39511,-0.423333 0.84667,-0.959555 0.47977,-0.536221 1.04422,-1.185332 h 4.54377 q -0.31044,0.310444 -0.73378,0.790222 -0.42333,0.451555 -0.87488,0.931332 -0.45156,0.479778 -0.87489,0.959555 -0.42334,0.451555 -0.70556,0.762 -0.59266,0.64911 -1.18533,1.298221 -0.59267,0.620888 -1.15711,1.269999 -1.46755,1.636887 -2.42711,2.765775 -0.93133,1.128888 -1.18533,1.552221 0.59266,-0.05644 1.69333,-0.677332 1.10067,-0.620889 2.54,-1.608666 1.72155,-1.241777 2.76577,-1.919109 1.04423,-0.705555 1.29823,-0.790222 l 0.67733,0.818444 q -0.0282,0.705555 -1.15711,1.693332 -1.10067,0.959555 -3.16089,2.144887 -1.91911,1.072444 -3.33022,1.693332 -1.41111,0.620888 -2.06022,0.620888 -2.11666,0 -2.11666,-2.257776 0,-0.02822 -0.0282,-0.02822 0,0 0,-0.02822 0,-0.02822 0.0282,-0.05644 l -0.0282,0.02822 q 0,-0.05644 -0.0282,-0.02822 0,0 0,0.05644 -3.35844,2.342443 -5.84199,2.342443 -3.35845,0 -3.35845,-3.301998 z"
         id="path16943"
         style="fill:#808080" />
    </g>
    <g
       aria-label="Nissaga"
       id="text2278"
       style="font-weight:bold;font-size:28.2222px;line-height:1.25;font-family:Elegante;-inkscape-font-specification:'Elegante, Bold';letter-spacing:0px;word-spacing:0px;fill:#916f6f;stroke-width:0.264583">
      <path
         d="m 60.498854,45.65595 -0.649111,-0.620889 v -0.592666 q 0.366889,-0.90311 0.733777,-1.777998 0.395111,-0.903111 0.762,-1.777999 l -0.02822,0.02822 q 0.39511,-0.959555 0.64911,-1.862665 0.254,-0.90311 0.395111,-1.721554 0.479777,-2.963331 1.015999,-5.64444 0.564444,-2.681109 1.213555,-4.854219 0.282222,-0.931332 0.451555,-1.523999 0.169333,-0.592666 0.395111,-1.241776 0.225778,-0.649111 0.564444,-1.523999 0.366889,-0.903111 1.015999,-2.42711 -2.511776,2.991554 -4.967107,5.954885 -2.427109,2.935109 -4.910663,5.926662 -11.683991,14.082878 -22.662427,14.082878 -1.467554,0 -2.709331,-0.282222 -1.241777,-0.310444 -2.314221,-0.874888 -2.850442,-1.552221 -2.850442,-4.374441 0,-1.382888 0.733777,-2.370665 0.762,-0.987777 2.144888,-0.987777 0.451555,0 0.90311,0.169333 0.451555,0.169333 0.790222,0.479777 0.338666,0.310445 0.536221,0.733778 0.225778,0.39511 0.225778,0.846666 0,2.31422 -2.652887,2.31422 -0.141111,0 -0.310444,0 -0.141111,-0.02822 -0.282222,-0.05644 0.564444,1.298221 2.003776,2.003776 1.439332,0.677333 3.809997,0.677333 4.99533,0 10.301103,-3.386664 5.333996,-3.386664 11.006659,-10.216437 4.035774,-4.825996 8.240882,-9.990659 4.23333,-5.192885 8.692438,-10.752658 l 0.705555,-0.2257779 0.733777,0.5644439 -0.02822,0.620889 q -0.564444,1.185332 -1.185333,2.455331 -0.620888,1.241777 -1.185332,2.427109 v -0.02822 q -0.564444,1.298221 -1.015999,2.539998 -0.423333,1.241777 -0.677333,2.427109 -0.705555,3.386664 -1.269999,5.813774 -0.536222,2.398887 -0.987777,3.922885 -0.254,0.818444 -0.366889,1.269999 -0.112888,0.423333 -0.253999,0.903111 -0.141111,0.479777 -0.423333,1.213554 -0.282222,0.733778 -0.874889,2.116666 3.132665,-3.866442 6.208884,-7.676439 3.104442,-3.809997 6.237107,-7.676439 2.06022,-2.56822 4.543774,-4.825996 2.511776,-2.285998 4.995329,-3.97933 3.160887,-2.0602207 6.208885,-3.1326643 3.076219,-1.1006658 5.983101,-1.1006658 1.18533,0 2.25778,0.2539998 1.10066,0.2539998 2.08844,0.705555 1.27,0.6491106 1.94733,1.5522213 0.70556,0.874888 0.70556,2.06022 0,0.536222 -0.22578,1.016 -0.19756,0.479777 -0.56444,0.846666 -0.33867,0.338666 -0.81845,0.536221 -0.47978,0.197556 -1.016,0.197556 -1.83444,0 -1.83444,-2.257776 0,-1.382888 1.66511,-1.91911 -0.56445,-0.592666 -1.60867,-0.9031103 -1.016,-0.3386664 -2.51177,-0.3386664 -2.624663,0 -5.587994,1.0442217 -2.935109,1.044221 -5.813773,2.906886 -2.483554,1.66511 -4.797774,3.809997 -2.285999,2.144888 -4.402664,4.713108 -1.185332,1.439332 -2.342442,2.878664 -1.128888,1.41111 -2.314221,2.850443 h 0.02822 q -1.185332,1.439332 -2.370664,2.850442 -1.157111,1.41111 -2.342443,2.850442 h 0.02822 q -2.709331,3.358442 -4.938885,6.321773 -2.201332,2.935109 -3.951108,5.503329 z"
         id="path16718" />
      <path
         d="m 86.181009,28.101741 q -0.451555,1.128888 -2.257776,2.257776 -0.705555,-0.451555 -1.241777,-1.015999 -0.536221,-0.592666 -0.931332,-1.298221 0.705555,-1.552221 2.201331,-2.370665 1.213555,0.536222 2.17311,1.947332 z m -4.938885,5.475107 q -0.592666,0.649111 -1.298221,1.439332 -0.705555,0.762 -1.439332,1.580444 -0.733778,0.790221 -1.439333,1.580443 -0.705555,0.790221 -1.269999,1.439332 -1.439332,1.580443 -2.342442,2.681109 -0.931333,1.072444 -1.241777,1.552221 1.523999,-0.02822 4.825996,-2.285998 1.947332,-1.326444 2.991553,-1.975554 1.044222,-0.649111 1.439333,-0.649111 l 0.507999,0.733777 q -0.02822,0.733778 -1.326443,1.749777 -1.269999,0.987777 -3.414886,2.173109 -1.975554,0.987777 -3.527775,1.636888 -1.580444,0.64911 -2.285999,0.64911 -2.144887,0 -2.144887,-2.285998 0,-0.705555 0.310444,-1.523999 0.310445,-0.846666 0.790222,-1.608665 -0.141111,0.112889 -0.310444,0.197555 -0.197556,0.05644 -0.366889,0.169334 l -0.790221,-0.987777 0.423333,-0.733778 q 2.342442,-1.580443 4.205107,-2.935108 1.862666,-1.382888 3.273776,-2.596443 z"
         id="path16720" />
      <path
         d="m 89.370069,35.637069 q -1.128888,0.790221 -3.019775,2.088443 -1.91911,1.298221 -4.515553,3.076219 h 0.282222 q 1.693332,0 1.693332,1.523999 0,1.298221 -0.874888,1.806221 3.58422,-0.423333 6.434662,-8.494882 z m 2.850442,2.003776 q 0,1.382888 -0.451555,2.539998 0.536222,-0.225778 1.213555,-0.564444 0.705555,-0.366889 1.580443,-0.846666 l 0.64911,0.874888 q 0,1.213555 -2.31422,2.088443 -0.790222,0.310444 -1.467554,0.508 -0.649111,0.197555 -1.157111,0.253999 -4.007552,3.527775 -7.365994,3.527775 -3.07622,0 -3.07622,-2.56822 0,-2.342442 1.806221,-2.624664 l -0.790222,-1.128888 q 0.169334,-0.282222 1.721555,-1.467555 1.523998,-1.213554 4.430885,-3.273775 2.906887,-2.060221 4.571997,-3.132664 1.665109,-1.100666 2.173109,-1.213555 l 1.015999,1.072444 q -0.423333,0.338666 -1.213554,0.987777 -0.762,0.620888 -1.580444,1.269999 -0.02822,0.197555 -0.02822,0.423333 0,0.197555 0,0.423333 0,0.225777 0.02822,0.592666 0.05644,0.338666 0.112889,0.761999 0.08467,0.423333 0.112889,0.818444 0.02822,0.395111 0.02822,0.677333 z"
         id="path16722" />
      <path
         d="m 103.0578,35.637069 q -1.12889,0.790221 -3.01978,2.088443 -1.919107,1.298221 -4.51555,3.076219 h 0.282222 q 1.693332,0 1.693332,1.523999 0,1.298221 -0.874888,1.806221 3.584224,-0.423333 6.434664,-8.494882 z m 2.85044,2.003776 q 0,1.382888 -0.45156,2.539998 0.53623,-0.225778 1.21356,-0.564444 0.70555,-0.366889 1.58044,-0.846666 l 0.64911,0.874888 q 0,1.213555 -2.31422,2.088443 -0.79022,0.310444 -1.46755,0.508 -0.64911,0.197555 -1.15711,0.253999 -4.007554,3.527775 -7.365996,3.527775 -3.07622,0 -3.07622,-2.56822 0,-2.342442 1.806221,-2.624664 l -0.790222,-1.128888 q 0.169334,-0.282222 1.721555,-1.467555 1.523998,-1.213554 4.430882,-3.273775 2.90689,-2.060221 4.572,-3.132664 1.66511,-1.100666 2.17311,-1.213555 l 1.016,1.072444 q -0.42333,0.338666 -1.21356,0.987777 -0.762,0.620888 -1.58044,1.269999 -0.0282,0.197555 -0.0282,0.423333 0,0.197555 0,0.423333 0,0.225777 0.0282,0.592666 0.0564,0.338666 0.11289,0.761999 0.0847,0.423333 0.11289,0.818444 0.0282,0.395111 0.0282,0.677333 z"
         id="path16724" />
      <path
         d="m 116.85842,43.567507 q -0.0564,0.112889 -0.0564,0.08467 0,-0.02822 0.0282,-0.08467 0.0282,-0.02822 0.0282,-0.02822 z m -6.096,0.536222 q 1.07244,0 2.62466,-0.733777 1.524,-0.762 3.38667,-2.144888 1.778,-1.41111 2.794,-2.709331 1.04422,-1.298221 1.04422,-2.285998 0,-0.818444 -1.016,-0.818444 -1.74978,0 -5.588,3.33022 -3.86644,3.358442 -3.86644,4.938885 0,0.423333 0.62089,0.423333 z m -3.13266,-1.495777 q 0,-1.66511 1.12888,-3.273775 1.10067,-1.636888 3.18911,-3.07622 1.94733,-1.326443 3.78178,-2.003776 1.83444,-0.677333 3.52777,-0.677333 2.93511,0 3.18911,2.144887 0.39511,-0.423333 0.84667,-0.959555 0.47977,-0.536221 1.04422,-1.185332 h 4.54377 q -0.31044,0.310444 -0.73377,0.790222 -0.42334,0.451555 -0.87489,0.931332 -0.45156,0.479778 -0.87489,0.959555 -0.42333,0.451555 -0.70556,0.762 -0.59266,0.64911 -1.18533,1.298221 -0.59266,0.620888 -1.15711,1.269999 -1.46755,1.636887 -2.42711,2.765775 -0.93133,1.128888 -1.18533,1.552221 0.59267,-0.05644 1.69333,-0.677332 1.10067,-0.620889 2.54,-1.608666 1.72155,-1.241777 2.76578,-1.919109 1.04422,-0.705555 1.29822,-0.790222 l 0.67733,0.818444 q -0.0282,0.705555 -1.15711,1.693332 -1.10067,0.959555 -3.16089,2.144887 -1.91911,1.072444 -3.33022,1.693332 -1.41111,0.620888 -2.06022,0.620888 -2.11666,0 -2.11666,-2.257776 0,-0.02822 -0.0282,-0.02822 0,0 0,-0.02822 0,-0.02822 0.0282,-0.05644 l -0.0282,0.02822 q 0,-0.05644 -0.0282,-0.02822 0,0 0,0.05644 -3.35844,2.342443 -5.84199,2.342443 -3.35844,0 -3.35844,-3.301998 z"
         id="path16726" />
      <path
         d="m 119.11616,57.622163 q 2.90689,0 6.35,-3.471331 0.0847,-0.08467 0.254,-0.282222 0.14111,-0.197555 0.56444,-0.705555 0.39511,-0.479777 1.10067,-1.354665 0.70555,-0.874889 1.86266,-2.314221 -1.15711,0.451555 -2.03199,0.790222 -0.90311,0.366888 -1.60867,0.64911 -0.70555,0.310445 -1.21355,0.536222 -0.53623,0.254 -0.98778,0.479778 -2.286,1.241776 -3.64067,2.539998 -1.38288,1.326443 -1.38288,2.427109 0,0.705555 0.73377,0.705555 z m 10.922,-13.518434 q 2.20133,0 6.01132,-2.878665 3.86645,-2.935108 3.86645,-4.995329 0,-0.818444 -1.016,-0.818444 -1.74978,0 -5.61622,3.33022 -3.83822,3.330219 -3.83822,4.938885 0,0.423333 0.59267,0.423333 z M 143.4437,33.576848 h 4.45911 l -8.94644,10.188214 q 1.60867,-0.90311 3.302,-2.06022 1.72155,-1.185333 3.64066,-2.681109 1.18533,-0.197556 1.18533,0.761999 l -0.0282,0.395111 q -0.28222,0.423333 -1.29822,1.213555 -1.016,0.790221 -2.82222,1.975554 -1.60866,1.072443 -2.73755,1.749776 -1.10067,0.677333 -1.74978,0.987777 -0.47978,0.225778 -1.12889,0.508 -0.64911,0.310444 -1.43933,0.761999 l 0.0847,-0.05644 q -1.91911,1.80622 -3.83822,3.584219 -1.91911,1.806221 -3.83822,3.640664 -5.41866,4.825996 -9.14399,4.825996 -2.59645,0 -2.59645,-2.455331 0,-3.443109 6.26533,-6.603995 0.95956,-0.508 3.13267,-1.382888 2.14488,-0.846666 5.55977,-2.116665 0.33867,-0.423333 0.45156,-0.536222 0.11288,-0.112889 0.16933,-0.169333 0.0564,-0.05644 0.16933,-0.197555 0.0847,-0.112889 0.45156,-0.564444 -1.49578,0.592666 -2.73756,0.592666 -3.10444,0 -3.10444,-3.33022 0,-3.386664 4.34622,-6.349995 v 0.02822 q 3.92289,-2.709331 7.25311,-2.709331 2.73755,0 3.16088,1.834443 z"
         id="path16728" />
      <path
         d="m 155.24056,43.567507 q -0.0564,0.112889 -0.0564,0.08467 0,-0.02822 0.0282,-0.08467 0.0282,-0.02822 0.0282,-0.02822 z m -6.09599,0.536222 q 1.07244,0 2.62466,-0.733777 1.524,-0.762 3.38667,-2.144888 1.778,-1.41111 2.794,-2.709331 1.04422,-1.298221 1.04422,-2.285998 0,-0.818444 -1.016,-0.818444 -1.74978,0 -5.588,3.33022 -3.86644,3.358442 -3.86644,4.938885 0,0.423333 0.62089,0.423333 z m -3.13267,-1.495777 q 0,-1.66511 1.12889,-3.273775 1.10067,-1.636888 3.18911,-3.07622 1.94733,-1.326443 3.78178,-2.003776 1.83444,-0.677333 3.52777,-0.677333 2.93511,0 3.18911,2.144887 0.39511,-0.423333 0.84667,-0.959555 0.47977,-0.536221 1.04422,-1.185332 h 4.54377 q -0.31044,0.310444 -0.73378,0.790222 -0.42333,0.451555 -0.87488,0.931332 -0.45156,0.479778 -0.87489,0.959555 -0.42334,0.451555 -0.70556,0.762 -0.59266,0.64911 -1.18533,1.298221 -0.59267,0.620888 -1.15711,1.269999 -1.46755,1.636887 -2.42711,2.765775 -0.93133,1.128888 -1.18533,1.552221 0.59266,-0.05644 1.69333,-0.677332 1.10067,-0.620889 2.54,-1.608666 1.72155,-1.241777 2.76577,-1.919109 1.04423,-0.705555 1.29823,-0.790222 l 0.67733,0.818444 q -0.0282,0.705555 -1.15711,1.693332 -1.10067,0.959555 -3.16089,2.144887 -1.91911,1.072444 -3.33022,1.693332 -1.41111,0.620888 -2.06022,0.620888 -2.11666,0 -2.11666,-2.257776 0,-0.02822 -0.0282,-0.02822 0,0 0,-0.02822 0,-0.02822 0.0282,-0.05644 l -0.0282,0.02822 q 0,-0.05644 -0.0282,-0.02822 0,0 0,0.05644 -3.35844,2.342443 -5.84199,2.342443 -3.35845,0 -3.35845,-3.301998 z"
         id="path16730" />
    </g>
    <g
       aria-label="Nissaga"
       id="g16796"
       style="font-weight:bold;font-size:28.2222px;line-height:1.25;font-family:Elegante;-inkscape-font-specification:'Elegante, Bold';letter-spacing:0px;word-spacing:0px;fill:#916f6f;stroke-width:0.264583">
      <path
         d="m 60.498854,45.65595 -0.649111,-0.620889 v -0.592666 q 0.366889,-0.90311 0.733777,-1.777998 0.395111,-0.903111 0.762,-1.777999 l -0.02822,0.02822 q 0.39511,-0.959555 0.64911,-1.862665 0.254,-0.90311 0.395111,-1.721554 0.479777,-2.963331 1.015999,-5.64444 0.564444,-2.681109 1.213555,-4.854219 0.282222,-0.931332 0.451555,-1.523999 0.169333,-0.592666 0.395111,-1.241776 0.225778,-0.649111 0.564444,-1.523999 0.366889,-0.903111 1.015999,-2.42711 -2.511776,2.991554 -4.967107,5.954885 -2.427109,2.935109 -4.910663,5.926662 -11.683991,14.082878 -22.662427,14.082878 -1.467554,0 -2.709331,-0.282222 -1.241777,-0.310444 -2.314221,-0.874888 -2.850442,-1.552221 -2.850442,-4.374441 0,-1.382888 0.733777,-2.370665 0.762,-0.987777 2.144888,-0.987777 0.451555,0 0.90311,0.169333 0.451555,0.169333 0.790222,0.479777 0.338666,0.310445 0.536221,0.733778 0.225778,0.39511 0.225778,0.846666 0,2.31422 -2.652887,2.31422 -0.141111,0 -0.310444,0 -0.141111,-0.02822 -0.282222,-0.05644 0.564444,1.298221 2.003776,2.003776 1.439332,0.677333 3.809997,0.677333 4.99533,0 10.301103,-3.386664 5.333996,-3.386664 11.006659,-10.216437 4.035774,-4.825996 8.240882,-9.990659 4.23333,-5.192885 8.692438,-10.752658 l 0.705555,-0.2257779 0.733777,0.5644439 -0.02822,0.620889 q -0.564444,1.185332 -1.185333,2.455331 -0.620888,1.241777 -1.185332,2.427109 v -0.02822 q -0.564444,1.298221 -1.015999,2.539998 -0.423333,1.241777 -0.677333,2.427109 -0.705555,3.386664 -1.269999,5.813774 -0.536222,2.398887 -0.987777,3.922885 -0.254,0.818444 -0.366889,1.269999 -0.112888,0.423333 -0.253999,0.903111 -0.141111,0.479777 -0.423333,1.213554 -0.282222,0.733778 -0.874889,2.116666 3.132665,-3.866442 6.208884,-7.676439 3.104442,-3.809997 6.237107,-7.676439 2.06022,-2.56822 4.543774,-4.825996 2.511776,-2.285998 4.995329,-3.97933 3.160887,-2.0602207 6.208885,-3.1326643 3.076219,-1.1006658 5.983101,-1.1006658 1.18533,0 2.25778,0.2539998 1.10066,0.2539998 2.08844,0.705555 1.27,0.6491106 1.94733,1.5522213 0.70556,0.874888 0.70556,2.06022 0,0.536222 -0.22578,1.016 -0.19756,0.479777 -0.56444,0.846666 -0.33867,0.338666 -0.81845,0.536221 -0.47978,0.197556 -1.016,0.197556 -1.83444,0 -1.83444,-2.257776 0,-1.382888 1.66511,-1.91911 -0.56445,-0.592666 -1.60867,-0.9031103 -1.016,-0.3386664 -2.51177,-0.3386664 -2.624663,0 -5.587994,1.0442217 -2.935109,1.044221 -5.813773,2.906886 -2.483554,1.66511 -4.797774,3.809997 -2.285999,2.144888 -4.402664,4.713108 -1.185332,1.439332 -2.342442,2.878664 -1.128888,1.41111 -2.314221,2.850443 h 0.02822 q -1.185332,1.439332 -2.370664,2.850442 -1.157111,1.41111 -2.342443,2.850442 h 0.02822 q -2.709331,3.358442 -4.938885,6.321773 -2.201332,2.935109 -3.951108,5.503329 z"
         id="path16782" />
      <path
         d="m 86.181009,28.101741 q -0.451555,1.128888 -2.257776,2.257776 -0.705555,-0.451555 -1.241777,-1.015999 -0.536221,-0.592666 -0.931332,-1.298221 0.705555,-1.552221 2.201331,-2.370665 1.213555,0.536222 2.17311,1.947332 z m -4.938885,5.475107 q -0.592666,0.649111 -1.298221,1.439332 -0.705555,0.762 -1.439332,1.580444 -0.733778,0.790221 -1.439333,1.580443 -0.705555,0.790221 -1.269999,1.439332 -1.439332,1.580443 -2.342442,2.681109 -0.931333,1.072444 -1.241777,1.552221 1.523999,-0.02822 4.825996,-2.285998 1.947332,-1.326444 2.991553,-1.975554 1.044222,-0.649111 1.439333,-0.649111 l 0.507999,0.733777 q -0.02822,0.733778 -1.326443,1.749777 -1.269999,0.987777 -3.414886,2.173109 -1.975554,0.987777 -3.527775,1.636888 -1.580444,0.64911 -2.285999,0.64911 -2.144887,0 -2.144887,-2.285998 0,-0.705555 0.310444,-1.523999 0.310445,-0.846666 0.790222,-1.608665 -0.141111,0.112889 -0.310444,0.197555 -0.197556,0.05644 -0.366889,0.169334 l -0.790221,-0.987777 0.423333,-0.733778 q 2.342442,-1.580443 4.205107,-2.935108 1.862666,-1.382888 3.273776,-2.596443 z"
         id="path16784" />
      <path
         d="m 89.370069,35.637069 q -1.128888,0.790221 -3.019775,2.088443 -1.91911,1.298221 -4.515553,3.076219 h 0.282222 q 1.693332,0 1.693332,1.523999 0,1.298221 -0.874888,1.806221 3.58422,-0.423333 6.434662,-8.494882 z m 2.850442,2.003776 q 0,1.382888 -0.451555,2.539998 0.536222,-0.225778 1.213555,-0.564444 0.705555,-0.366889 1.580443,-0.846666 l 0.64911,0.874888 q 0,1.213555 -2.31422,2.088443 -0.790222,0.310444 -1.467554,0.508 -0.649111,0.197555 -1.157111,0.253999 -4.007552,3.527775 -7.365994,3.527775 -3.07622,0 -3.07622,-2.56822 0,-2.342442 1.806221,-2.624664 l -0.790222,-1.128888 q 0.169334,-0.282222 1.721555,-1.467555 1.523998,-1.213554 4.430885,-3.273775 2.906887,-2.060221 4.571997,-3.132664 1.665109,-1.100666 2.173109,-1.213555 l 1.015999,1.072444 q -0.423333,0.338666 -1.213554,0.987777 -0.762,0.620888 -1.580444,1.269999 -0.02822,0.197555 -0.02822,0.423333 0,0.197555 0,0.423333 0,0.225777 0.02822,0.592666 0.05644,0.338666 0.112889,0.761999 0.08467,0.423333 0.112889,0.818444 0.02822,0.395111 0.02822,0.677333 z"
         id="path16786" />
      <path
         d="m 103.0578,35.637069 q -1.12889,0.790221 -3.01978,2.088443 -1.919107,1.298221 -4.51555,3.076219 h 0.282222 q 1.693332,0 1.693332,1.523999 0,1.298221 -0.874888,1.806221 3.584224,-0.423333 6.434664,-8.494882 z m 2.85044,2.003776 q 0,1.382888 -0.45156,2.539998 0.53623,-0.225778 1.21356,-0.564444 0.70555,-0.366889 1.58044,-0.846666 l 0.64911,0.874888 q 0,1.213555 -2.31422,2.088443 -0.79022,0.310444 -1.46755,0.508 -0.64911,0.197555 -1.15711,0.253999 -4.007554,3.527775 -7.365996,3.527775 -3.07622,0 -3.07622,-2.56822 0,-2.342442 1.806221,-2.624664 l -0.790222,-1.128888 q 0.169334,-0.282222 1.721555,-1.467555 1.523998,-1.213554 4.430882,-3.273775 2.90689,-2.060221 4.572,-3.132664 1.66511,-1.100666 2.17311,-1.213555 l 1.016,1.072444 q -0.42333,0.338666 -1.21356,0.987777 -0.762,0.620888 -1.58044,1.269999 -0.0282,0.197555 -0.0282,0.423333 0,0.197555 0,0.423333 0,0.225777 0.0282,0.592666 0.0564,0.338666 0.11289,0.761999 0.0847,0.423333 0.11289,0.818444 0.0282,0.395111 0.0282,0.677333 z"
         id="path16788" />
      <path
         d="m 116.85842,43.567507 q -0.0564,0.112889 -0.0564,0.08467 0,-0.02822 0.0282,-0.08467 0.0282,-0.02822 0.0282,-0.02822 z m -6.096,0.536222 q 1.07244,0 2.62466,-0.733777 1.524,-0.762 3.38667,-2.144888 1.778,-1.41111 2.794,-2.709331 1.04422,-1.298221 1.04422,-2.285998 0,-0.818444 -1.016,-0.818444 -1.74978,0 -5.588,3.33022 -3.86644,3.358442 -3.86644,4.938885 0,0.423333 0.62089,0.423333 z m -3.13266,-1.495777 q 0,-1.66511 1.12888,-3.273775 1.10067,-1.636888 3.18911,-3.07622 1.94733,-1.326443 3.78178,-2.003776 1.83444,-0.677333 3.52777,-0.677333 2.93511,0 3.18911,2.144887 0.39511,-0.423333 0.84667,-0.959555 0.47977,-0.536221 1.04422,-1.185332 h 4.54377 q -0.31044,0.310444 -0.73377,0.790222 -0.42334,0.451555 -0.87489,0.931332 -0.45156,0.479778 -0.87489,0.959555 -0.42333,0.451555 -0.70556,0.762 -0.59266,0.64911 -1.18533,1.298221 -0.59266,0.620888 -1.15711,1.269999 -1.46755,1.636887 -2.42711,2.765775 -0.93133,1.128888 -1.18533,1.552221 0.59267,-0.05644 1.69333,-0.677332 1.10067,-0.620889 2.54,-1.608666 1.72155,-1.241777 2.76578,-1.919109 1.04422,-0.705555 1.29822,-0.790222 l 0.67733,0.818444 q -0.0282,0.705555 -1.15711,1.693332 -1.10067,0.959555 -3.16089,2.144887 -1.91911,1.072444 -3.33022,1.693332 -1.41111,0.620888 -2.06022,0.620888 -2.11666,0 -2.11666,-2.257776 0,-0.02822 -0.0282,-0.02822 0,0 0,-0.02822 0,-0.02822 0.0282,-0.05644 l -0.0282,0.02822 q 0,-0.05644 -0.0282,-0.02822 0,0 0,0.05644 -3.35844,2.342443 -5.84199,2.342443 -3.35844,0 -3.35844,-3.301998 z"
         id="path16790" />
      <path
         d="m 119.11616,57.622163 q 2.90689,0 6.35,-3.471331 0.0847,-0.08467 0.254,-0.282222 0.14111,-0.197555 0.56444,-0.705555 0.39511,-0.479777 1.10067,-1.354665 0.70555,-0.874889 1.86266,-2.314221 -1.15711,0.451555 -2.03199,0.790222 -0.90311,0.366888 -1.60867,0.64911 -0.70555,0.310445 -1.21355,0.536222 -0.53623,0.254 -0.98778,0.479778 -2.286,1.241776 -3.64067,2.539998 -1.38288,1.326443 -1.38288,2.427109 0,0.705555 0.73377,0.705555 z m 10.922,-13.518434 q 2.20133,0 6.01132,-2.878665 3.86645,-2.935108 3.86645,-4.995329 0,-0.818444 -1.016,-0.818444 -1.74978,0 -5.61622,3.33022 -3.83822,3.330219 -3.83822,4.938885 0,0.423333 0.59267,0.423333 z M 143.4437,33.576848 h 4.45911 l -8.94644,10.188214 q 1.60867,-0.90311 3.302,-2.06022 1.72155,-1.185333 3.64066,-2.681109 1.18533,-0.197556 1.18533,0.761999 l -0.0282,0.395111 q -0.28222,0.423333 -1.29822,1.213555 -1.016,0.790221 -2.82222,1.975554 -1.60866,1.072443 -2.73755,1.749776 -1.10067,0.677333 -1.74978,0.987777 -0.47978,0.225778 -1.12889,0.508 -0.64911,0.310444 -1.43933,0.761999 l 0.0847,-0.05644 q -1.91911,1.80622 -3.83822,3.584219 -1.91911,1.806221 -3.83822,3.640664 -5.41866,4.825996 -9.14399,4.825996 -2.59645,0 -2.59645,-2.455331 0,-3.443109 6.26533,-6.603995 0.95956,-0.508 3.13267,-1.382888 2.14488,-0.846666 5.55977,-2.116665 0.33867,-0.423333 0.45156,-0.536222 0.11288,-0.112889 0.16933,-0.169333 0.0564,-0.05644 0.16933,-0.197555 0.0847,-0.112889 0.45156,-0.564444 -1.49578,0.592666 -2.73756,0.592666 -3.10444,0 -3.10444,-3.33022 0,-3.386664 4.34622,-6.349995 v 0.02822 q 3.92289,-2.709331 7.25311,-2.709331 2.73755,0 3.16088,1.834443 z"
         id="path16792" />
      <path
         d="m 155.24056,43.567507 q -0.0564,0.112889 -0.0564,0.08467 0,-0.02822 0.0282,-0.08467 0.0282,-0.02822 0.0282,-0.02822 z m -6.09599,0.536222 q 1.07244,0 2.62466,-0.733777 1.524,-0.762 3.38667,-2.144888 1.778,-1.41111 2.794,-2.709331 1.04422,-1.298221 1.04422,-2.285998 0,-0.818444 -1.016,-0.818444 -1.74978,0 -5.588,3.33022 -3.86644,3.358442 -3.86644,4.938885 0,0.423333 0.62089,0.423333 z m -3.13267,-1.495777 q 0,-1.66511 1.12889,-3.273775 1.10067,-1.636888 3.18911,-3.07622 1.94733,-1.326443 3.78178,-2.003776 1.83444,-0.677333 3.52777,-0.677333 2.93511,0 3.18911,2.144887 0.39511,-0.423333 0.84667,-0.959555 0.47977,-0.536221 1.04422,-1.185332 h 4.54377 q -0.31044,0.310444 -0.73378,0.790222 -0.42333,0.451555 -0.87488,0.931332 -0.45156,0.479778 -0.87489,0.959555 -0.42334,0.451555 -0.70556,0.762 -0.59266,0.64911 -1.18533,1.298221 -0.59267,0.620888 -1.15711,1.269999 -1.46755,1.636887 -2.42711,2.765775 -0.93133,1.128888 -1.18533,1.552221 0.59266,-0.05644 1.69333,-0.677332 1.10067,-0.620889 2.54,-1.608666 1.72155,-1.241777 2.76577,-1.919109 1.04423,-0.705555 1.29823,-0.790222 l 0.67733,0.818444 q -0.0282,0.705555 -1.15711,1.693332 -1.10067,0.959555 -3.16089,2.144887 -1.91911,1.072444 -3.33022,1.693332 -1.41111,0.620888 -2.06022,0.620888 -2.11666,0 -2.11666,-2.257776 0,-0.02822 -0.0282,-0.02822 0,0 0,-0.02822 0,-0.02822 0.0282,-0.05644 l -0.0282,0.02822 q 0,-0.05644 -0.0282,-0.02822 0,0 0,0.05644 -3.35844,2.342443 -5.84199,2.342443 -3.35845,0 -3.35845,-3.301998 z"
         id="path16794" />
    </g>
    <g
       aria-label="Nissaga"
       id="g16911"
       style="font-weight:bold;font-size:28.2222px;line-height:1.25;font-family:Elegante;-inkscape-font-specification:'Elegante, Bold';letter-spacing:0px;word-spacing:0px;fill:#916f6f;stroke-width:0.264583">
      <path
         d="m 60.498854,45.65595 -0.649111,-0.620889 v -0.592666 q 0.366889,-0.90311 0.733777,-1.777998 0.395111,-0.903111 0.762,-1.777999 l -0.02822,0.02822 q 0.39511,-0.959555 0.64911,-1.862665 0.254,-0.90311 0.395111,-1.721554 0.479777,-2.963331 1.015999,-5.64444 0.564444,-2.681109 1.213555,-4.854219 0.282222,-0.931332 0.451555,-1.523999 0.169333,-0.592666 0.395111,-1.241776 0.225778,-0.649111 0.564444,-1.523999 0.366889,-0.903111 1.015999,-2.42711 -2.511776,2.991554 -4.967107,5.954885 -2.427109,2.935109 -4.910663,5.926662 -11.683991,14.082878 -22.662427,14.082878 -1.467554,0 -2.709331,-0.282222 -1.241777,-0.310444 -2.314221,-0.874888 -2.850442,-1.552221 -2.850442,-4.374441 0,-1.382888 0.733777,-2.370665 0.762,-0.987777 2.144888,-0.987777 0.451555,0 0.90311,0.169333 0.451555,0.169333 0.790222,0.479777 0.338666,0.310445 0.536221,0.733778 0.225778,0.39511 0.225778,0.846666 0,2.31422 -2.652887,2.31422 -0.141111,0 -0.310444,0 -0.141111,-0.02822 -0.282222,-0.05644 0.564444,1.298221 2.003776,2.003776 1.439332,0.677333 3.809997,0.677333 4.99533,0 10.301103,-3.386664 5.333996,-3.386664 11.006659,-10.216437 4.035774,-4.825996 8.240882,-9.990659 4.23333,-5.192885 8.692438,-10.752658 l 0.705555,-0.2257779 0.733777,0.5644439 -0.02822,0.620889 q -0.564444,1.185332 -1.185333,2.455331 -0.620888,1.241777 -1.185332,2.427109 v -0.02822 q -0.564444,1.298221 -1.015999,2.539998 -0.423333,1.241777 -0.677333,2.427109 -0.705555,3.386664 -1.269999,5.813774 -0.536222,2.398887 -0.987777,3.922885 -0.254,0.818444 -0.366889,1.269999 -0.112888,0.423333 -0.253999,0.903111 -0.141111,0.479777 -0.423333,1.213554 -0.282222,0.733778 -0.874889,2.116666 3.132665,-3.866442 6.208884,-7.676439 3.104442,-3.809997 6.237107,-7.676439 2.06022,-2.56822 4.543774,-4.825996 2.511776,-2.285998 4.995329,-3.97933 3.160887,-2.0602207 6.208885,-3.1326643 3.076219,-1.1006658 5.983101,-1.1006658 1.18533,0 2.25778,0.2539998 1.10066,0.2539998 2.08844,0.705555 1.27,0.6491106 1.94733,1.5522213 0.70556,0.874888 0.70556,2.06022 0,0.536222 -0.22578,1.016 -0.19756,0.479777 -0.56444,0.846666 -0.33867,0.338666 -0.81845,0.536221 -0.47978,0.197556 -1.016,0.197556 -1.83444,0 -1.83444,-2.257776 0,-1.382888 1.66511,-1.91911 -0.56445,-0.592666 -1.60867,-0.9031103 -1.016,-0.3386664 -2.51177,-0.3386664 -2.624663,0 -5.587994,1.0442217 -2.935109,1.044221 -5.813773,2.906886 -2.483554,1.66511 -4.797774,3.809997 -2.285999,2.144888 -4.402664,4.713108 -1.185332,1.439332 -2.342442,2.878664 -1.128888,1.41111 -2.314221,2.850443 h 0.02822 q -1.185332,1.439332 -2.370664,2.850442 -1.157111,1.41111 -2.342443,2.850442 h 0.02822 q -2.709331,3.358442 -4.938885,6.321773 -2.201332,2.935109 -3.951108,5.503329 z"
         id="path16897" />
      <path
         d="m 86.181009,28.101741 q -0.451555,1.128888 -2.257776,2.257776 -0.705555,-0.451555 -1.241777,-1.015999 -0.536221,-0.592666 -0.931332,-1.298221 0.705555,-1.552221 2.201331,-2.370665 1.213555,0.536222 2.17311,1.947332 z m -4.938885,5.475107 q -0.592666,0.649111 -1.298221,1.439332 -0.705555,0.762 -1.439332,1.580444 -0.733778,0.790221 -1.439333,1.580443 -0.705555,0.790221 -1.269999,1.439332 -1.439332,1.580443 -2.342442,2.681109 -0.931333,1.072444 -1.241777,1.552221 1.523999,-0.02822 4.825996,-2.285998 1.947332,-1.326444 2.991553,-1.975554 1.044222,-0.649111 1.439333,-0.649111 l 0.507999,0.733777 q -0.02822,0.733778 -1.326443,1.749777 -1.269999,0.987777 -3.414886,2.173109 -1.975554,0.987777 -3.527775,1.636888 -1.580444,0.64911 -2.285999,0.64911 -2.144887,0 -2.144887,-2.285998 0,-0.705555 0.310444,-1.523999 0.310445,-0.846666 0.790222,-1.608665 -0.141111,0.112889 -0.310444,0.197555 -0.197556,0.05644 -0.366889,0.169334 l -0.790221,-0.987777 0.423333,-0.733778 q 2.342442,-1.580443 4.205107,-2.935108 1.862666,-1.382888 3.273776,-2.596443 z"
         id="path16899" />
      <path
         d="m 89.370069,35.637069 q -1.128888,0.790221 -3.019775,2.088443 -1.91911,1.298221 -4.515553,3.076219 h 0.282222 q 1.693332,0 1.693332,1.523999 0,1.298221 -0.874888,1.806221 3.58422,-0.423333 6.434662,-8.494882 z m 2.850442,2.003776 q 0,1.382888 -0.451555,2.539998 0.536222,-0.225778 1.213555,-0.564444 0.705555,-0.366889 1.580443,-0.846666 l 0.64911,0.874888 q 0,1.213555 -2.31422,2.088443 -0.790222,0.310444 -1.467554,0.508 -0.649111,0.197555 -1.157111,0.253999 -4.007552,3.527775 -7.365994,3.527775 -3.07622,0 -3.07622,-2.56822 0,-2.342442 1.806221,-2.624664 l -0.790222,-1.128888 q 0.169334,-0.282222 1.721555,-1.467555 1.523998,-1.213554 4.430885,-3.273775 2.906887,-2.060221 4.571997,-3.132664 1.665109,-1.100666 2.173109,-1.213555 l 1.015999,1.072444 q -0.423333,0.338666 -1.213554,0.987777 -0.762,0.620888 -1.580444,1.269999 -0.02822,0.197555 -0.02822,0.423333 0,0.197555 0,0.423333 0,0.225777 0.02822,0.592666 0.05644,0.338666 0.112889,0.761999 0.08467,0.423333 0.112889,0.818444 0.02822,0.395111 0.02822,0.677333 z"
         id="path16901" />
      <path
         d="m 103.0578,35.637069 q -1.12889,0.790221 -3.01978,2.088443 -1.919107,1.298221 -4.51555,3.076219 h 0.282222 q 1.693332,0 1.693332,1.523999 0,1.298221 -0.874888,1.806221 3.584224,-0.423333 6.434664,-8.494882 z m 2.85044,2.003776 q 0,1.382888 -0.45156,2.539998 0.53623,-0.225778 1.21356,-0.564444 0.70555,-0.366889 1.58044,-0.846666 l 0.64911,0.874888 q 0,1.213555 -2.31422,2.088443 -0.79022,0.310444 -1.46755,0.508 -0.64911,0.197555 -1.15711,0.253999 -4.007554,3.527775 -7.365996,3.527775 -3.07622,0 -3.07622,-2.56822 0,-2.342442 1.806221,-2.624664 l -0.790222,-1.128888 q 0.169334,-0.282222 1.721555,-1.467555 1.523998,-1.213554 4.430882,-3.273775 2.90689,-2.060221 4.572,-3.132664 1.66511,-1.100666 2.17311,-1.213555 l 1.016,1.072444 q -0.42333,0.338666 -1.21356,0.987777 -0.762,0.620888 -1.58044,1.269999 -0.0282,0.197555 -0.0282,0.423333 0,0.197555 0,0.423333 0,0.225777 0.0282,0.592666 0.0564,0.338666 0.11289,0.761999 0.0847,0.423333 0.11289,0.818444 0.0282,0.395111 0.0282,0.677333 z"
         id="path16903" />
      <path
         d="m 116.85842,43.567507 q -0.0564,0.112889 -0.0564,0.08467 0,-0.02822 0.0282,-0.08467 0.0282,-0.02822 0.0282,-0.02822 z m -6.096,0.536222 q 1.07244,0 2.62466,-0.733777 1.524,-0.762 3.38667,-2.144888 1.778,-1.41111 2.794,-2.709331 1.04422,-1.298221 1.04422,-2.285998 0,-0.818444 -1.016,-0.818444 -1.74978,0 -5.588,3.33022 -3.86644,3.358442 -3.86644,4.938885 0,0.423333 0.62089,0.423333 z m -3.13266,-1.495777 q 0,-1.66511 1.12888,-3.273775 1.10067,-1.636888 3.18911,-3.07622 1.94733,-1.326443 3.78178,-2.003776 1.83444,-0.677333 3.52777,-0.677333 2.93511,0 3.18911,2.144887 0.39511,-0.423333 0.84667,-0.959555 0.47977,-0.536221 1.04422,-1.185332 h 4.54377 q -0.31044,0.310444 -0.73377,0.790222 -0.42334,0.451555 -0.87489,0.931332 -0.45156,0.479778 -0.87489,0.959555 -0.42333,0.451555 -0.70556,0.762 -0.59266,0.64911 -1.18533,1.298221 -0.59266,0.620888 -1.15711,1.269999 -1.46755,1.636887 -2.42711,2.765775 -0.93133,1.128888 -1.18533,1.552221 0.59267,-0.05644 1.69333,-0.677332 1.10067,-0.620889 2.54,-1.608666 1.72155,-1.241777 2.76578,-1.919109 1.04422,-0.705555 1.29822,-0.790222 l 0.67733,0.818444 q -0.0282,0.705555 -1.15711,1.693332 -1.10067,0.959555 -3.16089,2.144887 -1.91911,1.072444 -3.33022,1.693332 -1.41111,0.620888 -2.06022,0.620888 -2.11666,0 -2.11666,-2.257776 0,-0.02822 -0.0282,-0.02822 0,0 0,-0.02822 0,-0.02822 0.0282,-0.05644 l -0.0282,0.02822 q 0,-0.05644 -0.0282,-0.02822 0,0 0,0.05644 -3.35844,2.342443 -5.84199,2.342443 -3.35844,0 -3.35844,-3.301998 z"
         id="path16905" />
      <path
         d="m 119.11616,57.622163 q 2.90689,0 6.35,-3.471331 0.0847,-0.08467 0.254,-0.282222 0.14111,-0.197555 0.56444,-0.705555 0.39511,-0.479777 1.10067,-1.354665 0.70555,-0.874889 1.86266,-2.314221 -1.15711,0.451555 -2.03199,0.790222 -0.90311,0.366888 -1.60867,0.64911 -0.70555,0.310445 -1.21355,0.536222 -0.53623,0.254 -0.98778,0.479778 -2.286,1.241776 -3.64067,2.539998 -1.38288,1.326443 -1.38288,2.427109 0,0.705555 0.73377,0.705555 z m 10.922,-13.518434 q 2.20133,0 6.01132,-2.878665 3.86645,-2.935108 3.86645,-4.995329 0,-0.818444 -1.016,-0.818444 -1.74978,0 -5.61622,3.33022 -3.83822,3.330219 -3.83822,4.938885 0,0.423333 0.59267,0.423333 z M 143.4437,33.576848 h 4.45911 l -8.94644,10.188214 q 1.60867,-0.90311 3.302,-2.06022 1.72155,-1.185333 3.64066,-2.681109 1.18533,-0.197556 1.18533,0.761999 l -0.0282,0.395111 q -0.28222,0.423333 -1.29822,1.213555 -1.016,0.790221 -2.82222,1.975554 -1.60866,1.072443 -2.73755,1.749776 -1.10067,0.677333 -1.74978,0.987777 -0.47978,0.225778 -1.12889,0.508 -0.64911,0.310444 -1.43933,0.761999 l 0.0847,-0.05644 q -1.91911,1.80622 -3.83822,3.584219 -1.91911,1.806221 -3.83822,3.640664 -5.41866,4.825996 -9.14399,4.825996 -2.59645,0 -2.59645,-2.455331 0,-3.443109 6.26533,-6.603995 0.95956,-0.508 3.13267,-1.382888 2.14488,-0.846666 5.55977,-2.116665 0.33867,-0.423333 0.45156,-0.536222 0.11288,-0.112889 0.16933,-0.169333 0.0564,-0.05644 0.16933,-0.197555 0.0847,-0.112889 0.45156,-0.564444 -1.49578,0.592666 -2.73756,0.592666 -3.10444,0 -3.10444,-3.33022 0,-3.386664 4.34622,-6.349995 v 0.02822 q 3.92289,-2.709331 7.25311,-2.709331 2.73755,0 3.16088,1.834443 z"
         id="path16907" />
      <path
         d="m 155.24056,43.567507 q -0.0564,0.112889 -0.0564,0.08467 0,-0.02822 0.0282,-0.08467 0.0282,-0.02822 0.0282,-0.02822 z m -6.09599,0.536222 q 1.07244,0 2.62466,-0.733777 1.524,-0.762 3.38667,-2.144888 1.778,-1.41111 2.794,-2.709331 1.04422,-1.298221 1.04422,-2.285998 0,-0.818444 -1.016,-0.818444 -1.74978,0 -5.588,3.33022 -3.86644,3.358442 -3.86644,4.938885 0,0.423333 0.62089,0.423333 z m -3.13267,-1.495777 q 0,-1.66511 1.12889,-3.273775 1.10067,-1.636888 3.18911,-3.07622 1.94733,-1.326443 3.78178,-2.003776 1.83444,-0.677333 3.52777,-0.677333 2.93511,0 3.18911,2.144887 0.39511,-0.423333 0.84667,-0.959555 0.47977,-0.536221 1.04422,-1.185332 h 4.54377 q -0.31044,0.310444 -0.73378,0.790222 -0.42333,0.451555 -0.87488,0.931332 -0.45156,0.479778 -0.87489,0.959555 -0.42334,0.451555 -0.70556,0.762 -0.59266,0.64911 -1.18533,1.298221 -0.59267,0.620888 -1.15711,1.269999 -1.46755,1.636887 -2.42711,2.765775 -0.93133,1.128888 -1.18533,1.552221 0.59266,-0.05644 1.69333,-0.677332 1.10067,-0.620889 2.54,-1.608666 1.72155,-1.241777 2.76577,-1.919109 1.04423,-0.705555 1.29823,-0.790222 l 0.67733,0.818444 q -0.0282,0.705555 -1.15711,1.693332 -1.10067,0.959555 -3.16089,2.144887 -1.91911,1.072444 -3.33022,1.693332 -1.41111,0.620888 -2.06022,0.620888 -2.11666,0 -2.11666,-2.257776 0,-0.02822 -0.0282,-0.02822 0,0 0,-0.02822 0,-0.02822 0.0282,-0.05644 l -0.0282,0.02822 q 0,-0.05644 -0.0282,-0.02822 0,0 0,0.05644 -3.35844,2.342443 -5.84199,2.342443 -3.35845,0 -3.35845,-3.301998 z"
         id="path16909" />
    </g>
  </g>
</svg>
